OceaneRegular.ufo
<glyph name="exclam" format="2">
  <advance width="226"/>
  <unicode hex="0021"/>
  <outline>
    <contour>
      <point x="134" y="202" type="line" smooth="yes"/>
      <point x="134" y="179"/>
      <point x="115" y="160"/>
      <point x="92" y="160" type="curve"/>
      <point x="92" y="598" type="line" smooth="yes"/>
      <point x="92" y="621"/>
      <point x="111" y="640"/>
      <point x="134" y="640" type="curve"/>
    </contour>
    <contour>
      <point x="112.98" y="80" type="curve" smooth="yes"/>
      <point x="135.08" y="80"/>
      <point x="152.98" y="62.0996"/>
      <point x="152.98" y="40" type="curve" smooth="yes"/>
      <point x="152.98" y="17.9102"/>
      <point x="135.07" y="0"/>
      <point x="112.98" y="0" type="curve" smooth="yes"/>
      <point x="90.9004" y="0"/>
      <point x="73" y="17.9102"/>
      <point x="73" y="40" type="curve" smooth="yes"/>
      <point x="73" y="62.0996"/>
      <point x="90.9004" y="80"/>
    </contour>
  </outline>
</glyph>
<glyph name="dollar" format="2">
  <advance width="618"/>
  <unicode hex="0024"/>
  <outline>
    <contour>
      <point x="457" y="130" type="curve" smooth="yes"/>
      <point x="489" y="148"/>
      <point x="505" y="171"/>
      <point x="505" y="197" type="curve" smooth="yes"/>
      <point x="505" y="263"/>
      <point x="433" y="282"/>
      <point x="330" y="297" type="curve"/>
      <point x="330" y="96" type="line"/>
      <point x="378" y="96"/>
      <point x="424" y="111"/>
    </contour>
    <contour>
      <point x="112" y="445" type="curve" smooth="yes"/>
      <point x="112" y="379"/>
      <point x="184" y="361"/>
      <point x="288" y="346" type="curve"/>
      <point x="288" y="544" type="line"/>
      <point x="239" y="544"/>
      <point x="193" y="530"/>
      <point x="159" y="510" type="curve" smooth="yes"/>
      <point x="128" y="492"/>
      <point x="112" y="470"/>
    </contour>
    <contour>
      <point x="330" y="340" type="line"/>
      <point x="432" y="326"/>
      <point x="547" y="304"/>
      <point x="547" y="200" type="curve" smooth="yes"/>
      <point x="547" y="198" type="line"/>
      <point x="547" y="195" type="line" smooth="yes"/>
      <point x="547" y="155"/>
      <point x="523" y="119"/>
      <point x="478" y="93" type="curve" smooth="yes"/>
      <point x="439" y="70"/>
      <point x="385" y="54"/>
      <point x="330" y="54" type="curve"/>
      <point x="330" y="42" type="line" smooth="yes"/>
      <point x="330" y="19"/>
      <point x="311" y="0"/>
      <point x="288" y="0" type="curve"/>
      <point x="288" y="54" type="line"/>
      <point x="231" y="54"/>
      <point x="176" y="68"/>
      <point x="136" y="91" type="curve" smooth="yes"/>
      <point x="93" y="116"/>
      <point x="70" y="151"/>
      <point x="70" y="192" type="curve"/>
      <point x="75" y="192" type="line" smooth="yes"/>
      <point x="94" y="192"/>
      <point x="110" y="180"/>
      <point x="119" y="163" type="curve" smooth="yes"/>
      <point x="126" y="150"/>
      <point x="139" y="138"/>
      <point x="157" y="127" type="curve" smooth="yes"/>
      <point x="191" y="108"/>
      <point x="238" y="96"/>
      <point x="288" y="96" type="curve"/>
      <point x="288" y="303" type="line"/>
      <point x="186" y="318"/>
      <point x="70" y="338"/>
      <point x="70" y="442" type="curve" smooth="yes"/>
      <point x="70" y="444" type="line" smooth="yes"/>
      <point x="70" y="485"/>
      <point x="93" y="521"/>
      <point x="138" y="547" type="curve" smooth="yes"/>
      <point x="178" y="570"/>
      <point x="232" y="586"/>
      <point x="288" y="586" type="curve"/>
      <point x="288" y="598" type="line" smooth="yes"/>
      <point x="288" y="621"/>
      <point x="307" y="639.937"/>
      <point x="330" y="639.937" type="curve"/>
      <point x="330" y="586" type="line"/>
      <point x="387" y="586"/>
      <point x="442" y="572"/>
      <point x="482" y="549" type="curve" smooth="yes"/>
      <point x="524" y="525"/>
      <point x="547" y="490"/>
      <point x="547" y="451" type="curve" smooth="yes"/>
      <point x="547" y="448" type="line"/>
      <point x="542" y="448" type="line" smooth="yes"/>
      <point x="523" y="448"/>
      <point x="507" y="460"/>
      <point x="498" y="477" type="curve" smooth="yes"/>
      <point x="491" y="490"/>
      <point x="479" y="502"/>
      <point x="461" y="512" type="curve" smooth="yes"/>
      <point x="427" y="532"/>
      <point x="379" y="544"/>
      <point x="330" y="544" type="curve"/>
    </contour>
  </outline>
</glyph>
<glyph name="plus" format="2">
  <advance width="350"/>
  <unicode hex="002B"/>
  <outline>
    <contour>
      <point x="196.15" y="341.14" type="line"/>
      <point x="294.98" y="341.14" type="line"/>
      <point x="294.98" y="317.76"/>
      <point x="276.03" y="298.81"/>
      <point x="252.65" y="298.81" type="curve" smooth="yes"/>
      <point x="196.15" y="298.81" type="line"/>
      <point x="196.15" y="242.319" type="line" smooth="yes"/>
      <point x="196.15" y="218.939"/>
      <point x="177.2" y="199.989"/>
      <point x="153.82" y="199.989" type="curve"/>
      <point x="153.82" y="298.81" type="line"/>
      <point x="55" y="298.81" type="line"/>
      <point x="55" y="322.189"/>
      <point x="73.9502" y="341.14"/>
      <point x="97.3301" y="341.14" type="curve" smooth="yes"/>
      <point x="153.82" y="341.14" type="line"/>
      <point x="153.82" y="397.64" type="line" smooth="yes"/>
      <point x="153.82" y="421.01"/>
      <point x="172.771" y="439.96"/>
      <point x="196.15" y="439.96" type="curve"/>
    </contour>
  </outline>
</glyph>
<glyph name="period" format="2">
  <advance width="172"/>
  <unicode hex="002E"/>
  <outline>
    <contour>
      <point x="86.001" y="0" type="curve" smooth="yes"/>
      <point x="63.9092" y="0"/>
      <point x="46" y="17.9092"/>
      <point x="46" y="40.001" type="curve" smooth="yes"/>
      <point x="46" y="62.0928"/>
      <point x="63.9092" y="80.002"/>
      <point x="86.001" y="80.002" type="curve" smooth="yes"/>
      <point x="108.093" y="80.002"/>
      <point x="126.002" y="62.0928"/>
      <point x="126.002" y="40.001" type="curve" smooth="yes"/>
      <point x="126.002" y="17.9092"/>
      <point x="108.093" y="0"/>
    </contour>
  </outline>
</glyph>
<glyph name="semicolon" format="2">
  <advance width="206"/>
  <unicode hex="003B"/>
  <outline>
    <contour>
      <point x="76" y="57" type="line" smooth="yes"/>
      <point x="83.8165" y="71.9224"/>
      <point x="98.7021" y="80.2806"/>
      <point x="114.198" y="80.2806" type="curve" smooth="yes"/>
      <point x="120.51" y="80.2806"/>
      <point x="126.922" y="78.8941"/>
      <point x="133" y="76" type="curve"/>
      <point x="72" y="-47" type="line" smooth="yes"/>
      <point x="64.1835" y="-61.9224"/>
      <point x="49.2979" y="-70.2806"/>
      <point x="33.8017" y="-70.2806" type="curve" smooth="yes"/>
      <point x="27.4903" y="-70.2806"/>
      <point x="21.0776" y="-68.8941"/>
      <point x="15" y="-66" type="curve"/>
    </contour>
    <contour>
      <point x="113" y="245" type="curve" smooth="yes"/>
      <point x="135" y="245"/>
      <point x="153" y="227"/>
      <point x="153" y="205" type="curve" smooth="yes"/>
      <point x="153" y="183"/>
      <point x="135" y="165"/>
      <point x="113" y="165" type="curve" smooth="yes"/>
      <point x="91" y="165"/>
      <point x="73" y="183"/>
      <point x="73" y="205" type="curve" smooth="yes"/>
      <point x="73" y="227"/>
      <point x="91" y="245"/>
    </contour>
  </outline>
</glyph>
<glyph name="question" format="2">
  <advance width="470"/>
  <unicode hex="003F"/>
  <outline>
    <contour>
      <point x="227" y="640" type="curve" smooth="yes"/>
      <point x="228.756" y="640.043"/>
      <point x="230.516" y="640.065"/>
      <point x="232.279" y="640.065" type="curve" smooth="yes"/>
      <point x="311.863" y="640.065"/>
      <point x="398.173" y="595.789"/>
      <point x="406" y="496" type="curve" smooth="yes"/>
      <point x="406.105" y="493.91"/>
      <point x="406.156" y="491.842"/>
      <point x="406.156" y="489.795" type="curve" smooth="yes"/>
      <point x="406.156" y="433.092"/>
      <point x="366.92" y="393.059"/>
      <point x="337" y="367" type="curve" smooth="yes"/>
      <point x="261.166" y="292.058"/>
      <point x="253.784" y="254.526"/>
      <point x="253.784" y="213.927" type="curve" smooth="yes"/>
      <point x="253.784" y="209.02"/>
      <point x="253.892" y="204.068"/>
      <point x="254" y="199" type="curve" smooth="yes"/>
      <point x="254" y="198" type="line" smooth="yes"/>
      <point x="254" y="177.59"/>
      <point x="236.997" y="160.958"/>
      <point x="216.762" y="160.958" type="curve" smooth="yes"/>
      <point x="216.177" y="160.958"/>
      <point x="215.59" y="160.972"/>
      <point x="215" y="161" type="curve" smooth="yes"/>
      <point x="211" y="162" type="line"/>
      <point x="211.5" y="168"/>
      <point x="211.75" y="174"/>
      <point x="211.75" y="180" type="curve" smooth="yes"/>
      <point x="211.75" y="186"/>
      <point x="211.5" y="192"/>
      <point x="211" y="198" type="curve" smooth="yes"/>
      <point x="210.9" y="203.3"/>
      <point x="210.8" y="208.57"/>
      <point x="210.8" y="213.86" type="curve" smooth="yes"/>
      <point x="210.8" y="261.47"/>
      <point x="218.9" y="310.7"/>
      <point x="308" y="398" type="curve"/>
      <point x="309" y="399" type="line"/>
      <point x="346.92" y="432.058"/>
      <point x="364.042" y="460.39"/>
      <point x="364.042" y="490.429" type="curve" smooth="yes"/>
      <point x="364.042" y="491.285"/>
      <point x="364.028" y="492.142"/>
      <point x="364" y="493" type="curve" smooth="yes"/>
      <point x="358.171" y="564.891"/>
      <point x="292.882" y="598.086"/>
      <point x="233.234" y="598.086" type="curve" smooth="yes"/>
      <point x="231.484" y="598.086"/>
      <point x="229.739" y="598.057"/>
      <point x="228" y="598" type="curve" smooth="yes"/>
      <point x="176" y="597"/>
      <point x="124" y="573"/>
      <point x="106" y="523" type="curve" smooth="yes"/>
      <point x="99.2519" y="502.756"/>
      <point x="81.3521" y="489.946"/>
      <point x="60.3634" y="489.946" type="curve" smooth="yes"/>
      <point x="59.5798" y="489.946"/>
      <point x="58.7918" y="489.964"/>
      <point x="58" y="490" type="curve" smooth="yes"/>
      <point x="61" y="590"/>
      <point x="147" y="638"/>
    </contour>
    <contour>
      <point x="232" y="80" type="curve" smooth="yes"/>
      <point x="254" y="80"/>
      <point x="272" y="62"/>
      <point x="272" y="40" type="curve" smooth="yes"/>
      <point x="272" y="18"/>
      <point x="254" y="0"/>
      <point x="232" y="0" type="curve" smooth="yes"/>
      <point x="210" y="0"/>
      <point x="192" y="18"/>
      <point x="192" y="40" type="curve" smooth="yes"/>
      <point x="192" y="62"/>
      <point x="210" y="80"/>
    </contour>
  </outline>
</glyph>
<glyph name="E" format="2">
  <advance width="500"/>
  <unicode hex="0045"/>
  <outline>
    <contour>
      <point x="427.848" y="42.5693" type="line" smooth="yes"/>
      <point x="451.228" y="42.5693"/>
      <point x="470.177" y="23.6211"/>
      <point x="470.177" y="0.241211" type="curve"/>
      <point x="100.165" y="0.241211" type="line" smooth="yes"/>
      <point x="88.4678" y="0.241211"/>
      <point x="79" y="9.72266"/>
      <point x="79" y="21.4053" type="curve" smooth="yes"/>
      <point x="79" y="618.442" type="line" smooth="yes"/>
      <point x="79" y="630.125"/>
      <point x="88.4678" y="639.606"/>
      <point x="100.165" y="639.606" type="curve" smooth="yes"/>
      <point x="470.177" y="639.606" type="line"/>
      <point x="470.177" y="616.227"/>
      <point x="451.228" y="597.277"/>
      <point x="427.848" y="597.277" type="curve" smooth="yes"/>
      <point x="121.329" y="597.277" type="line"/>
      <point x="121.329" y="341.088" type="line"/>
      <point x="398.951" y="341.088" type="line"/>
      <point x="398.951" y="317.708"/>
      <point x="380.002" y="298.759"/>
      <point x="356.622" y="298.759" type="curve" smooth="yes"/>
      <point x="121.329" y="298.759" type="line"/>
      <point x="121.329" y="42.5693" type="line"/>
    </contour>
  </outline>
</glyph>
<glyph name="R" format="2">
  <advance width="669"/>
  <unicode hex="0052"/>
  <outline>
    <contour>
      <point x="428.932" y="328.458" type="line" smooth="yes"/>
      <point x="500.566" y="328.458"/>
      <point x="558.84" y="386.73"/>
      <point x="558.84" y="458.365" type="curve" smooth="yes"/>
      <point x="558.84" y="467.452" type="line" smooth="yes"/>
      <point x="558.84" y="539.087"/>
      <point x="500.566" y="597.36"/>
      <point x="428.932" y="597.36" type="curve" smooth="yes"/>
      <point x="122.328" y="597.36" type="line"/>
      <point x="122.328" y="328.458" type="line"/>
    </contour>
    <contour>
      <point x="601.169" y="467.453" type="curve" smooth="yes"/>
      <point x="601.169" y="458.38" type="line" smooth="yes"/>
      <point x="601.169" y="394.279"/>
      <point x="565.909" y="338.362"/>
      <point x="513.845" y="308.704" type="curve"/>
      <point x="565.684" y="279.836"/>
      <point x="601.169" y="222.297"/>
      <point x="601.169" y="156.066" type="curve" smooth="yes"/>
      <point x="601.169" y="-0.000976562" type="line"/>
      <point x="577.789" y="-0.000976562"/>
      <point x="558.84" y="18.9482"/>
      <point x="558.84" y="42.3281" type="curve" smooth="yes"/>
      <point x="558.84" y="156.066" type="line" smooth="yes"/>
      <point x="558.84" y="227.786"/>
      <point x="504.828" y="286.144"/>
      <point x="438.428" y="286.144" type="curve"/>
      <point x="438.428" y="286.623" type="line"/>
      <point x="435.268" y="286.454"/>
      <point x="432.135" y="286.144"/>
      <point x="428.932" y="286.144" type="curve" smooth="yes"/>
      <point x="122.328" y="286.144" type="line"/>
      <point x="122.328" y="42.3281" type="line" smooth="yes"/>
      <point x="122.328" y="18.9482"/>
      <point x="103.379" y="-0.000976562"/>
      <point x="79.999" y="-0.000976562" type="curve"/>
      <point x="79.999" y="618.525" type="line" smooth="yes"/>
      <point x="79.999" y="630.223"/>
      <point x="89.4668" y="639.69"/>
      <point x="101.164" y="639.69" type="curve" smooth="yes"/>
      <point x="428.932" y="639.69" type="line" smooth="yes"/>
      <point x="523.904" y="639.69"/>
      <point x="601.169" y="562.426"/>
    </contour>
  </outline>
</glyph>
<glyph name="c" format="2">
  <advance width="502"/>
  <unicode hex="0063"/>
  <outline>
    <contour>
      <point x="405" y="81" type="curve" smooth="yes"/>
      <point x="413.699" y="87.7666"/>
      <point x="424.034" y="91.2627"/>
      <point x="434.311" y="91.2627" type="curve" smooth="yes"/>
      <point x="445.297" y="91.2627"/>
      <point x="456.217" y="87.2666"/>
      <point x="465" y="79" type="curve"/>
      <point x="420" y="29"/>
      <point x="355" y="0"/>
      <point x="287" y="0" type="curve" smooth="yes"/>
      <point x="154" y="0"/>
      <point x="47" y="107"/>
      <point x="47" y="239" type="curve" smooth="yes"/>
      <point x="47" y="371"/>
      <point x="154" y="479"/>
      <point x="287" y="479" type="curve" smooth="yes"/>
      <point x="355" y="479"/>
      <point x="420" y="450"/>
      <point x="465" y="399" type="curve"/>
      <point x="456.061" y="391.112"/>
      <point x="444.909" y="387.096"/>
      <point x="433.727" y="387.096" type="curve" smooth="yes"/>
      <point x="423.644" y="387.096"/>
      <point x="413.535" y="390.361"/>
      <point x="405" y="397" type="curve" smooth="yes"/>
      <point x="371.049" y="422.464"/>
      <point x="329.745" y="436.532"/>
      <point x="286.886" y="436.532" type="curve" smooth="yes"/>
      <point x="259.052" y="436.532"/>
      <point x="230.561" y="430.6"/>
      <point x="203" y="418" type="curve" smooth="yes"/>
      <point x="144" y="391"/>
      <point x="101" y="334"/>
      <point x="92" y="269" type="curve" smooth="yes"/>
      <point x="90.3613" y="258.475"/>
      <point x="89.5703" y="248.076"/>
      <point x="89.5703" y="237.86" type="curve" smooth="yes"/>
      <point x="89.5703" y="129.664"/>
      <point x="178.267" y="42"/>
      <point x="287" y="42" type="curve" smooth="yes"/>
      <point x="330" y="42"/>
      <point x="371" y="56"/>
    </contour>
  </outline>
</glyph>
<glyph name="h" format="2">
  <advance width="576"/>
  <unicode hex="0068"/>
  <outline>
    <contour>
      <point x="282" y="481" type="curve" smooth="yes"/>
      <point x="285.6" y="481.17"/>
      <point x="289.182" y="481.254"/>
      <point x="292.744" y="481.254" type="curve" smooth="yes"/>
      <point x="414.868" y="481.254"/>
      <point x="514" y="382.429"/>
      <point x="514" y="260" type="curve" smooth="yes"/>
      <point x="514" y="44" type="line" smooth="yes"/>
      <point x="514" y="20"/>
      <point x="495" y="1"/>
      <point x="472" y="1" type="curve"/>
      <point x="472" y="255" type="line" smooth="yes"/>
      <point x="472" y="348"/>
      <point x="403" y="429"/>
      <point x="310" y="438" type="curve" smooth="yes"/>
      <point x="304.238" y="438.544"/>
      <point x="298.524" y="438.81"/>
      <point x="292.869" y="438.81" type="curve" smooth="yes"/>
      <point x="194.482" y="438.81"/>
      <point x="114" y="358.347"/>
      <point x="114" y="260" type="curve" smooth="yes"/>
      <point x="114" y="220" type="line"/>
      <point x="114" y="43" type="line" smooth="yes"/>
      <point x="114" y="19"/>
      <point x="95" y="0"/>
      <point x="72" y="0" type="curve"/>
      <point x="72" y="599" type="line" smooth="yes"/>
      <point x="72" y="622"/>
      <point x="91" y="641"/>
      <point x="114" y="641" type="curve"/>
      <point x="114" y="387" type="line"/>
      <point x="152" y="441"/>
      <point x="212" y="477"/>
    </contour>
  </outline>
</glyph>
<glyph name="m" format="2">
  <advance width="898"/>
  <unicode hex="006D"/>
  <outline>
    <contour>
      <point x="623" y="480" type="curve" smooth="yes"/>
      <point x="626.527" y="480.184"/>
      <point x="630.037" y="480.275"/>
      <point x="633.527" y="480.275" type="curve" smooth="yes"/>
      <point x="743.799" y="480.275"/>
      <point x="834" y="389.503"/>
      <point x="834" y="279" type="curve" smooth="yes"/>
      <point x="834" y="43" type="line" smooth="yes"/>
      <point x="834" y="19"/>
      <point x="815" y="0"/>
      <point x="792" y="0" type="curve"/>
      <point x="792" y="275" type="line" smooth="yes"/>
      <point x="792" y="357"/>
      <point x="731" y="430"/>
      <point x="648" y="437" type="curve" smooth="yes"/>
      <point x="642.792" y="437.499"/>
      <point x="637.628" y="437.742"/>
      <point x="632.517" y="437.742" type="curve" smooth="yes"/>
      <point x="545.382" y="437.742"/>
      <point x="474" y="366.848"/>
      <point x="474" y="279" type="curve" smooth="yes"/>
      <point x="474" y="43" type="line" smooth="yes"/>
      <point x="474" y="19"/>
      <point x="455" y="0"/>
      <point x="432" y="0" type="curve"/>
      <point x="432" y="273" type="line"/>
      <point x="432" y="279" type="line" smooth="yes"/>
      <point x="432" y="367"/>
      <point x="361" y="438"/>
      <point x="273" y="438" type="curve" smooth="yes"/>
      <point x="186" y="438"/>
      <point x="114" y="367"/>
      <point x="114" y="279" type="curve" smooth="yes"/>
      <point x="114" y="43" type="line" smooth="yes"/>
      <point x="114" y="19"/>
      <point x="95" y="0"/>
      <point x="72" y="0" type="curve"/>
      <point x="72" y="438" type="line" smooth="yes"/>
      <point x="72" y="461"/>
      <point x="91" y="480"/>
      <point x="114" y="480" type="curve"/>
      <point x="114" y="402" type="line"/>
      <point x="151" y="450"/>
      <point x="209" y="480"/>
      <point x="273" y="480" type="curve" smooth="yes"/>
      <point x="353" y="480"/>
      <point x="421" y="434"/>
      <point x="454" y="367" type="curve"/>
      <point x="485" y="431"/>
      <point x="548" y="476"/>
    </contour>
  </outline>
</glyph>
<glyph name="v" format="2">
  <advance width="477"/>
  <unicode hex="0076"/>
  <outline>
    <contour>
      <point x="388.665" y="438.021" type="line" smooth="yes"/>
      <point x="399.346" y="463.645"/>
      <point x="424.42" y="480.351"/>
      <point x="452.188" y="480.351" type="curve"/>
      <point x="257.629" y="13.4189" type="line" smooth="yes"/>
      <point x="254.342" y="5.53125"/>
      <point x="246.638" y="0.395508"/>
      <point x="238.087" y="0.395508" type="curve" smooth="yes"/>
      <point x="229.536" y="0.395508"/>
      <point x="221.832" y="5.53125"/>
      <point x="218.545" y="13.4189" type="curve" smooth="yes"/>
      <point x="24.001" y="480.351" type="line"/>
      <point x="51.7686" y="480.351"/>
      <point x="76.8135" y="463.659"/>
      <point x="87.4941" y="438.021" type="curve" smooth="yes"/>
      <point x="238.072" y="76.6025" type="line"/>
    </contour>
  </outline>
</glyph>
<glyph name="sterling" format="2">
  <advance width="627"/>
  <unicode hex="00A3"/>
  <outline>
    <contour>
      <point x="372" y="602" type="curve" smooth="yes"/>
      <point x="356.417" y="605.791"/>
      <point x="339.99" y="607.808"/>
      <point x="323.385" y="607.808" type="curve" smooth="yes"/>
      <point x="261.137" y="607.808"/>
      <point x="196.366" y="579.469"/>
      <point x="164" y="510" type="curve" smooth="yes"/>
      <point x="157.667" y="487.081"/>
      <point x="155.062" y="467.254"/>
      <point x="155.062" y="449.531" type="curve" smooth="yes"/>
      <point x="155.062" y="408.486"/>
      <point x="169.031" y="378.73"/>
      <point x="183" y="348" type="curve" smooth="yes"/>
      <point x="191" y="330"/>
      <point x="199" y="312"/>
      <point x="205" y="292" type="curve"/>
      <point x="390" y="292" type="line"/>
      <point x="390" y="269"/>
      <point x="371" y="250"/>
      <point x="347" y="250" type="curve" smooth="yes"/>
      <point x="212" y="250" type="line"/>
      <point x="212.033" y="248.626"/>
      <point x="212.05" y="247.24"/>
      <point x="212.05" y="245.844" type="curve" smooth="yes"/>
      <point x="212.05" y="204.572"/>
      <point x="197.494" y="153.546"/>
      <point x="153" y="81" type="curve"/>
      <point x="170.188" y="86.334"/>
      <point x="187.025" y="88.5068"/>
      <point x="203.485" y="88.5068" type="curve" smooth="yes"/>
      <point x="242.566" y="88.5068"/>
      <point x="279.521" y="76.2588"/>
      <point x="314" y="65" type="curve" smooth="yes"/>
      <point x="347.971" y="53.4941"/>
      <point x="379.84" y="42.8877"/>
      <point x="412.075" y="42.8877" type="curve" smooth="yes"/>
      <point x="438.673" y="42.8877"/>
      <point x="465.519" y="50.1084"/>
      <point x="494" y="70" type="curve" smooth="yes"/>
      <point x="501.614" y="75.499"/>
      <point x="510.481" y="78.1357"/>
      <point x="519.314" y="78.1357" type="curve" smooth="yes"/>
      <point x="531.362" y="78.1357"/>
      <point x="543.346" y="73.2314"/>
      <point x="552" y="64" type="curve"/>
      <point x="502.498" y="15.5508"/>
      <point x="456.046" y="0.381836"/>
      <point x="412.353" y="0.381836" type="curve" smooth="yes"/>
      <point x="373.077" y="0.381836"/>
      <point x="336.03" y="12.6387"/>
      <point x="301" y="24" type="curve" smooth="yes"/>
      <point x="266.672" y="35.2715"/>
      <point x="234.707" y="46.0186"/>
      <point x="202.414" y="46.0186" type="curve" smooth="yes"/>
      <point x="171.68" y="46.0186"/>
      <point x="140.647" y="36.2832"/>
      <point x="107" y="8" type="curve" smooth="yes"/>
      <point x="98" y="1"/>
      <point x="85" y="1"/>
      <point x="77" y="9" type="curve" smooth="yes"/>
      <point x="68" y="17"/>
      <point x="66" y="30"/>
      <point x="74" y="40" type="curve" smooth="yes"/>
      <point x="145.428" y="135.863"/>
      <point x="168.274" y="195.512"/>
      <point x="168.274" y="241.359" type="curve" smooth="yes"/>
      <point x="168.274" y="244.294"/>
      <point x="168.181" y="247.173"/>
      <point x="168" y="250" type="curve"/>
      <point x="78" y="250" type="line"/>
      <point x="78" y="273"/>
      <point x="96" y="292"/>
      <point x="120" y="292" type="curve" smooth="yes"/>
      <point x="160" y="292" type="line"/>
      <point x="156" y="305"/>
      <point x="150" y="318"/>
      <point x="144" y="331" type="curve" smooth="yes"/>
      <point x="129.257" y="363.997"/>
      <point x="112.542" y="399.952"/>
      <point x="112.542" y="450.283" type="curve" smooth="yes"/>
      <point x="112.542" y="471.643"/>
      <point x="115.552" y="495.59"/>
      <point x="123" y="523" type="curve"/>
      <point x="125" y="526" type="line"/>
      <point x="164.7" y="614.135"/>
      <point x="245.379" y="649.942"/>
      <point x="322.986" y="649.942" type="curve" smooth="yes"/>
      <point x="343.121" y="649.942"/>
      <point x="363.048" y="647.532"/>
      <point x="382" y="643" type="curve" smooth="yes"/>
      <point x="471.043" y="622.451"/>
      <point x="559.129" y="548.286"/>
      <point x="559.129" y="430.809" type="curve" smooth="yes"/>
      <point x="559.129" y="428.227"/>
      <point x="559.086" y="425.624"/>
      <point x="559" y="423" type="curve"/>
      <point x="557" y="423" type="line"/>
      <point x="535" y="424"/>
      <point x="518" y="440"/>
      <point x="514" y="462" type="curve" smooth="yes"/>
      <point x="500" y="543"/>
      <point x="432" y="588"/>
    </contour>
  </outline>
</glyph>
<glyph name="dieresis" format="2">
  <advance width="292"/>
  <unicode hex="00A8"/>
  <outline>
    <contour>
      <point x="205.971" y="560.2" type="curve" smooth="yes"/>
      <point x="228.07" y="560.2"/>
      <point x="245.971" y="542.3"/>
      <point x="245.971" y="520.2" type="curve" smooth="yes"/>
      <point x="245.971" y="498.11"/>
      <point x="228.051" y="480.2"/>
      <point x="205.971" y="480.2" type="curve" smooth="yes"/>
      <point x="183.891" y="480.2"/>
      <point x="165.99" y="498.11"/>
      <point x="165.99" y="520.2" type="curve" smooth="yes"/>
      <point x="165.99" y="542.3"/>
      <point x="183.891" y="560.2"/>
    </contour>
    <contour>
      <point x="85.9805" y="560.2" type="curve" smooth="yes"/>
      <point x="108.08" y="560.2"/>
      <point x="125.98" y="542.3"/>
      <point x="125.98" y="520.2" type="curve" smooth="yes"/>
      <point x="125.98" y="498.11"/>
      <point x="108.07" y="480.2"/>
      <point x="85.9805" y="480.2" type="curve" smooth="yes"/>
      <point x="63.9004" y="480.2"/>
      <point x="46" y="498.11"/>
      <point x="46" y="520.2" type="curve" smooth="yes"/>
      <point x="46" y="542.3"/>
      <point x="63.9004" y="560.2"/>
    </contour>
  </outline>
</glyph>
<glyph name="Egrave" format="2">
  <advance width="500"/>
  <unicode hex="00C8"/>
  <outline>
    <contour>
      <point x="428" y="43" type="line" smooth="yes"/>
      <point x="451" y="43"/>
      <point x="470" y="24"/>
      <point x="470" y="0" type="curve"/>
      <point x="100" y="0" type="line" smooth="yes"/>
      <point x="88" y="0"/>
      <point x="79" y="10"/>
      <point x="79" y="21" type="curve" smooth="yes"/>
      <point x="79" y="618" type="line" smooth="yes"/>
      <point x="79" y="630"/>
      <point x="88" y="640"/>
      <point x="100" y="640" type="curve" smooth="yes"/>
      <point x="470" y="640" type="line"/>
      <point x="470" y="616"/>
      <point x="451" y="597"/>
      <point x="428" y="597" type="curve" smooth="yes"/>
      <point x="121" y="597" type="line"/>
      <point x="121" y="341" type="line"/>
      <point x="399" y="341" type="line"/>
      <point x="399" y="318"/>
      <point x="380" y="299"/>
      <point x="357" y="299" type="curve" smooth="yes"/>
      <point x="121" y="299" type="line"/>
      <point x="121" y="43" type="line"/>
    </contour>
    <contour>
      <point x="330" y="688" type="line"/>
      <point x="321.5" y="680"/>
      <point x="310.5" y="676"/>
      <point x="299.625" y="676" type="curve" smooth="yes"/>
      <point x="288.75" y="676"/>
      <point x="278" y="680"/>
      <point x="270" y="688" type="curve" smooth="yes"/>
      <point x="220" y="738" type="line"/>
      <point x="228" y="746.5"/>
      <point x="238.75" y="750.75"/>
      <point x="249.5" y="750.75" type="curve" smooth="yes"/>
      <point x="260.25" y="750.75"/>
      <point x="271" y="746.5"/>
      <point x="279" y="738" type="curve" smooth="yes"/>
    </contour>
  </outline>
</glyph>
<glyph name="Igrave" format="2">
  <advance width="200"/>
  <unicode hex="00CC"/>
  <outline>
    <contour>
      <point x="79" y="598" type="line" smooth="yes"/>
      <point x="79" y="621"/>
      <point x="98" y="640"/>
      <point x="121" y="640" type="curve"/>
      <point x="121" y="42" type="line" smooth="yes"/>
      <point x="121" y="19"/>
      <point x="102" y="0"/>
      <point x="79" y="0" type="curve"/>
    </contour>
    <contour>
      <point x="105" y="745" type="curve" smooth="yes"/>
      <point x="155" y="695" type="line"/>
      <point x="146.5" y="686.5"/>
      <point x="135.75" y="682.25"/>
      <point x="125" y="682.25" type="curve" smooth="yes"/>
      <point x="114.25" y="682.25"/>
      <point x="103.5" y="686.5"/>
      <point x="95" y="695" type="curve" smooth="yes"/>
      <point x="45" y="745" type="line"/>
      <point x="53.5" y="753"/>
      <point x="64.25" y="757"/>
      <point x="75" y="757" type="curve" smooth="yes"/>
      <point x="85.75" y="757"/>
      <point x="96.5" y="753"/>
    </contour>
  </outline>
</glyph>
<glyph name="Iacute" format="2">
  <advance width="201"/>
  <unicode hex="00CD"/>
  <outline>
    <contour>
      <point x="80" y="598" type="line" smooth="yes"/>
      <point x="80" y="621"/>
      <point x="99" y="640"/>
      <point x="122" y="640" type="curve"/>
      <point x="122" y="43" type="line" smooth="yes"/>
      <point x="122" y="19"/>
      <point x="103" y="0"/>
      <point x="80" y="0" type="curve"/>
    </contour>
    <contour>
      <point x="158" y="745" type="curve"/>
      <point x="108" y="695" type="line" smooth="yes"/>
      <point x="99.5" y="686.5"/>
      <point x="88.75" y="682.25"/>
      <point x="78" y="682.25" type="curve" smooth="yes"/>
      <point x="67.25" y="682.25"/>
      <point x="56.5" y="686.5"/>
      <point x="48" y="695" type="curve"/>
      <point x="98" y="745" type="line" smooth="yes"/>
      <point x="106.5" y="753"/>
      <point x="117.25" y="757"/>
      <point x="128" y="757" type="curve" smooth="yes"/>
      <point x="138.75" y="757"/>
      <point x="149.5" y="753"/>
    </contour>
  </outline>
</glyph>
<glyph name="Icircumflex" format="2">
  <advance width="201"/>
  <unicode hex="00CE"/>
  <outline>
    <contour>
      <point x="79" y="598" type="line" smooth="yes"/>
      <point x="79" y="621"/>
      <point x="98" y="640"/>
      <point x="121" y="640" type="curve"/>
      <point x="121" y="42" type="line" smooth="yes"/>
      <point x="121" y="19"/>
      <point x="102" y="0"/>
      <point x="79" y="0" type="curve"/>
    </contour>
    <contour>
      <point x="131" y="744" type="curve" smooth="yes"/>
      <point x="181" y="694" type="line"/>
      <point x="173" y="685.5"/>
      <point x="162.25" y="681.25"/>
      <point x="151.375" y="681.25" type="curve" smooth="yes"/>
      <point x="140.5" y="681.25"/>
      <point x="129.5" y="685.5"/>
      <point x="121" y="694" type="curve" smooth="yes"/>
      <point x="101" y="714" type="line"/>
      <point x="81" y="694" type="line" smooth="yes"/>
      <point x="72.5" y="685.5"/>
      <point x="61.75" y="681.25"/>
      <point x="51" y="681.25" type="curve" smooth="yes"/>
      <point x="40.25" y="681.25"/>
      <point x="29.5" y="685.5"/>
      <point x="21" y="694" type="curve"/>
      <point x="71" y="744" type="line" smooth="yes"/>
      <point x="79" y="752"/>
      <point x="90" y="756"/>
      <point x="101" y="756" type="curve" smooth="yes"/>
      <point x="112" y="756"/>
      <point x="123" y="752"/>
    </contour>
  </outline>
</glyph>
<glyph name="Oacute" format="2">
  <advance width="734"/>
  <unicode hex="00D3"/>
  <outline>
    <contour>
      <point x="367" y="42" type="curve" smooth="yes"/>
      <point x="520" y="42"/>
      <point x="645" y="167"/>
      <point x="645" y="320" type="curve" smooth="yes"/>
      <point x="645" y="473"/>
      <point x="520" y="597"/>
      <point x="367" y="597" type="curve" smooth="yes"/>
      <point x="214" y="597"/>
      <point x="89" y="473"/>
      <point x="89" y="320" type="curve" smooth="yes"/>
      <point x="89" y="167"/>
      <point x="214" y="42"/>
    </contour>
    <contour>
      <point x="367" y="642" type="curve" smooth="yes"/>
      <point x="544" y="642"/>
      <point x="687" y="498"/>
      <point x="687" y="322" type="curve" smooth="yes"/>
      <point x="687" y="145"/>
      <point x="544" y="2"/>
      <point x="367" y="2" type="curve" smooth="yes"/>
      <point x="190" y="2"/>
      <point x="47" y="145"/>
      <point x="47" y="322" type="curve" smooth="yes"/>
      <point x="47" y="498"/>
      <point x="190" y="642"/>
    </contour>
    <contour>
      <point x="367" y="702" type="line" smooth="yes"/>
      <point x="358.5" y="693.5"/>
      <point x="347.75" y="689.25"/>
      <point x="337" y="689.25" type="curve" smooth="yes"/>
      <point x="326.25" y="689.25"/>
      <point x="315.5" y="693.5"/>
      <point x="307" y="702" type="curve"/>
      <point x="357" y="752" type="line" smooth="yes"/>
      <point x="365.5" y="760"/>
      <point x="376.25" y="764"/>
      <point x="387" y="764" type="curve" smooth="yes"/>
      <point x="397.75" y="764"/>
      <point x="408.5" y="760"/>
      <point x="417" y="752" type="curve"/>
    </contour>
  </outline>
</glyph>
<glyph name="aacute" format="2">
  <advance width="599"/>
  <unicode hex="00E1"/>
  <outline>
    <contour>
      <point x="485" y="438" type="line" smooth="yes"/>
      <point x="485" y="461"/>
      <point x="504" y="480"/>
      <point x="527" y="480" type="curve"/>
      <point x="527" y="42" type="line" smooth="yes"/>
      <point x="527" y="19"/>
      <point x="508" y="0"/>
      <point x="485" y="0" type="curve"/>
      <point x="485" y="104" type="line"/>
      <point x="441" y="41"/>
      <point x="369" y="0"/>
      <point x="287" y="0" type="curve" smooth="yes"/>
      <point x="154" y="0"/>
      <point x="47" y="107"/>
      <point x="47" y="240" type="curve" smooth="yes"/>
      <point x="47" y="373"/>
      <point x="154" y="480"/>
      <point x="287" y="480" type="curve" smooth="yes"/>
      <point x="369" y="480"/>
      <point x="441" y="439"/>
      <point x="485" y="376" type="curve"/>
    </contour>
    <contour>
      <point x="287" y="42" type="curve" smooth="yes"/>
      <point x="396" y="42"/>
      <point x="485" y="131"/>
      <point x="485" y="240" type="curve" smooth="yes"/>
      <point x="485" y="349"/>
      <point x="396" y="438"/>
      <point x="287" y="438" type="curve" smooth="yes"/>
      <point x="178" y="438"/>
      <point x="89" y="349"/>
      <point x="89" y="240" type="curve" smooth="yes"/>
      <point x="89" y="131"/>
      <point x="178" y="42"/>
    </contour>
    <contour>
      <point x="292" y="577" type="line" smooth="yes"/>
      <point x="283.5" y="569"/>
      <point x="272.75" y="565"/>
      <point x="262" y="565" type="curve" smooth="yes"/>
      <point x="251.25" y="565"/>
      <point x="240.5" y="569"/>
      <point x="232" y="577" type="curve"/>
      <point x="282" y="628" type="line" smooth="yes"/>
      <point x="290.5" y="636"/>
      <point x="301.25" y="640"/>
      <point x="312" y="640" type="curve" smooth="yes"/>
      <point x="322.75" y="640"/>
      <point x="333.5" y="636"/>
      <point x="342" y="628" type="curve"/>
    </contour>
  </outline>
</glyph>
<glyph name="aring" format="2">
  <advance width="599"/>
  <unicode hex="00E5"/>
  <outline>
    <contour>
      <point x="484.626" y="437.628" type="line" smooth="yes"/>
      <point x="484.626" y="461.008"/>
      <point x="503.575" y="479.958"/>
      <point x="526.955" y="479.958" type="curve"/>
      <point x="526.955" y="42.332" type="line" smooth="yes"/>
      <point x="526.955" y="18.9521"/>
      <point x="508.006" y="0.00292969"/>
      <point x="484.626" y="0.00292969" type="curve"/>
      <point x="484.626" y="104.005" type="line"/>
      <point x="441.338" y="41.2168"/>
      <point x="368.998" y="0.00195312"/>
      <point x="286.979" y="0.00195312" type="curve" smooth="yes"/>
      <point x="154.446" y="0.00195312"/>
      <point x="47.001" y="107.447"/>
      <point x="47.001" y="239.979" type="curve" smooth="yes"/>
      <point x="47.001" y="372.512"/>
      <point x="154.446" y="479.957"/>
      <point x="286.979" y="479.957" type="curve" smooth="yes"/>
      <point x="369.012" y="479.957"/>
      <point x="441.352" y="438.742"/>
      <point x="484.626" y="375.954" type="curve"/>
    </contour>
    <contour>
      <point x="286.978" y="42.332" type="curve" smooth="yes"/>
      <point x="395.961" y="42.332"/>
      <point x="484.626" y="130.997"/>
      <point x="484.626" y="239.98" type="curve" smooth="yes"/>
      <point x="484.626" y="348.964"/>
      <point x="395.961" y="437.629"/>
      <point x="286.978" y="437.629" type="curve" smooth="yes"/>
      <point x="177.994" y="437.629"/>
      <point x="89.3291" y="348.964"/>
      <point x="89.3291" y="239.98" type="curve" smooth="yes"/>
      <point x="89.3291" y="130.997"/>
      <point x="177.994" y="42.332"/>
    </contour>
    <contour>
      <point x="286.978" y="516.968" type="curve" smooth="yes"/>
      <point x="253.848" y="516.968"/>
      <point x="226.982" y="543.833"/>
      <point x="226.982" y="576.963" type="curve" smooth="yes"/>
      <point x="226.982" y="610.093"/>
      <point x="253.848" y="636.958"/>
      <point x="286.978" y="636.958" type="curve" smooth="yes"/>
      <point x="320.107" y="636.958"/>
      <point x="346.973" y="610.093"/>
      <point x="346.973" y="576.963" type="curve" smooth="yes"/>
      <point x="346.973" y="543.833"/>
      <point x="320.107" y="516.968"/>
    </contour>
    <contour>
      <point x="286.978" y="594.627" type="curve" smooth="yes"/>
      <point x="277.242" y="594.627"/>
      <point x="269.312" y="586.697"/>
      <point x="269.312" y="576.962" type="curve" smooth="yes"/>
      <point x="269.312" y="567.227"/>
      <point x="277.242" y="559.297"/>
      <point x="286.978" y="559.297" type="curve" smooth="yes"/>
      <point x="296.713" y="559.297"/>
      <point x="304.643" y="567.227"/>
      <point x="304.643" y="576.962" type="curve" smooth="yes"/>
      <point x="304.643" y="586.697"/>
      <point x="296.713" y="594.627"/>
    </contour>
  </outline>
</glyph>
<glyph name="edieresis" format="2">
  <advance width="572"/>
  <unicode hex="00EB"/>
  <outline>
    <contour>
      <point x="449" y="127" type="curve" smooth="yes"/>
      <point x="463" y="147"/>
      <point x="485" y="160"/>
      <point x="510" y="160" type="curve" smooth="yes"/>
      <point x="513" y="160" type="line"/>
      <point x="480" y="67"/>
      <point x="391" y="0"/>
      <point x="287" y="0" type="curve" smooth="yes"/>
      <point x="154.099" y="0"/>
      <point x="47.4756" y="107.743"/>
      <point x="47.4756" y="239.606" type="curve" smooth="yes"/>
      <point x="47.4756" y="248.634"/>
      <point x="47.9746" y="257.773"/>
      <point x="49" y="267" type="curve" smooth="yes"/>
      <point x="61" y="377"/>
      <point x="150" y="466"/>
      <point x="260" y="478" type="curve" smooth="yes"/>
      <point x="269.227" y="479.025"/>
      <point x="278.366" y="479.524"/>
      <point x="287.394" y="479.524" type="curve" smooth="yes"/>
      <point x="419.257" y="479.524"/>
      <point x="527" y="372.901"/>
      <point x="527" y="240" type="curve"/>
      <point x="494" y="240" type="line"/>
      <point x="89" y="240" type="line"/>
      <point x="89" y="131"/>
      <point x="178" y="42"/>
      <point x="287" y="42" type="curve" smooth="yes"/>
      <point x="354" y="42"/>
      <point x="413" y="76"/>
    </contour>
    <contour>
      <point x="287" y="438" type="curve" smooth="yes"/>
      <point x="193" y="438"/>
      <point x="113" y="371"/>
      <point x="94" y="282" type="curve"/>
      <point x="480" y="282" type="line"/>
      <point x="460" y="371"/>
      <point x="381" y="438"/>
    </contour>
    <contour>
      <point x="227" y="560" type="curve" smooth="yes"/>
      <point x="205" y="560"/>
      <point x="187" y="578"/>
      <point x="187" y="600" type="curve" smooth="yes"/>
      <point x="187" y="622"/>
      <point x="205" y="640"/>
      <point x="227" y="640" type="curve" smooth="yes"/>
      <point x="249" y="640"/>
      <point x="267" y="622"/>
      <point x="267" y="600" type="curve" smooth="yes"/>
      <point x="267" y="578"/>
      <point x="249" y="560"/>
    </contour>
    <contour>
      <point x="347" y="560" type="curve" smooth="yes"/>
      <point x="325" y="560"/>
      <point x="307" y="578"/>
      <point x="307" y="600" type="curve" smooth="yes"/>
      <point x="307" y="622"/>
      <point x="325" y="640"/>
      <point x="347" y="640" type="curve" smooth="yes"/>
      <point x="369" y="640"/>
      <point x="387" y="622"/>
      <point x="387" y="600" type="curve" smooth="yes"/>
      <point x="387" y="578"/>
      <point x="369" y="560"/>
    </contour>
  </outline>
</glyph>
<glyph name="ucircumflex" format="2">
  <advance width="549"/>
  <unicode hex="00FB"/>
  <outline>
    <contour>
      <point x="249" y="578" type="line" smooth="yes"/>
      <point x="240.5" y="569.5"/>
      <point x="229.75" y="565.25"/>
      <point x="219" y="565.25" type="curve" smooth="yes"/>
      <point x="208.25" y="565.25"/>
      <point x="197.5" y="569.5"/>
      <point x="189" y="578" type="curve"/>
      <point x="239" y="628" type="line" smooth="yes"/>
      <point x="247" y="636"/>
      <point x="258" y="640"/>
      <point x="269" y="640" type="curve" smooth="yes"/>
      <point x="280" y="640"/>
      <point x="291" y="636"/>
      <point x="299" y="628" type="curve" smooth="yes"/>
      <point x="349" y="578" type="line"/>
      <point x="341" y="569.5"/>
      <point x="330.25" y="565.25"/>
      <point x="319.375" y="565.25" type="curve" smooth="yes"/>
      <point x="308.5" y="565.25"/>
      <point x="297.5" y="569.5"/>
      <point x="289" y="578" type="curve" smooth="yes"/>
      <point x="269" y="598" type="line"/>
    </contour>
    <contour>
      <point x="434" y="480" type="line"/>
      <point x="457" y="480"/>
      <point x="476" y="461"/>
      <point x="476" y="438" type="curve" smooth="yes"/>
      <point x="476" y="43" type="line" smooth="yes"/>
      <point x="476" y="19"/>
      <point x="457" y="0"/>
      <point x="434" y="0" type="curve"/>
      <point x="434" y="82" type="line"/>
      <point x="395.684" y="32.1885"/>
      <point x="335.345" y="-0.188477"/>
      <point x="267.926" y="-0.188477" type="curve" smooth="yes"/>
      <point x="264.964" y="-0.188477"/>
      <point x="261.988" y="-0.125977"/>
      <point x="259" y="0" type="curve" smooth="yes"/>
      <point x="147" y="6"/>
      <point x="62" y="102"/>
      <point x="62" y="213" type="curve" smooth="yes"/>
      <point x="62" y="438" type="line" smooth="yes"/>
      <point x="62" y="461"/>
      <point x="81" y="480"/>
      <point x="104" y="480" type="curve"/>
      <point x="104" y="212" type="line" smooth="yes"/>
      <point x="104" y="126"/>
      <point x="168" y="51"/>
      <point x="253" y="43" type="curve" smooth="yes"/>
      <point x="258.237" y="42.5195"/>
      <point x="263.431" y="42.2842"/>
      <point x="268.572" y="42.2842" type="curve" smooth="yes"/>
      <point x="359.634" y="42.2842"/>
      <point x="434" y="116.13"/>
      <point x="434" y="207" type="curve" smooth="yes"/>
    </contour>
  </outline>
</glyph>
<glyph name="thorn" format="2">
  <advance width="376"/>
  <unicode hex="00FE"/>
  <outline>
    <contour>
      <point x="212.265" y="480.189" type="curve" smooth="yes"/>
      <point x="278.538" y="480.189"/>
      <point x="332.254" y="408.598"/>
      <point x="332.254" y="320.229" type="curve" smooth="yes"/>
      <point x="332.254" y="231.859"/>
      <point x="278.538" y="160.238"/>
      <point x="212.265" y="160.238" type="curve" smooth="yes"/>
      <point x="171.784" y="160.238"/>
      <point x="136.059" y="187.032"/>
      <point x="114.33" y="227.979" type="curve"/>
      <point x="114.33" y="0.248047" type="line"/>
      <point x="90.9502" y="0.248047"/>
      <point x="72.001" y="19.1973"/>
      <point x="72.001" y="42.5771" type="curve" smooth="yes"/>
      <point x="72.001" y="640.179" type="line"/>
      <point x="95.3809" y="640.179"/>
      <point x="114.33" y="621.229"/>
      <point x="114.33" y="597.85" type="curve" smooth="yes"/>
      <point x="114.33" y="412.448" type="line"/>
      <point x="136.059" y="453.381"/>
      <point x="171.784" y="480.189"/>
    </contour>
    <contour>
      <point x="212.265" y="202.555" type="curve" smooth="yes"/>
      <point x="254.354" y="202.555"/>
      <point x="289.923" y="256.439"/>
      <point x="289.923" y="320.215" type="curve" smooth="yes"/>
      <point x="289.923" y="383.99"/>
      <point x="254.353" y="437.875"/>
      <point x="212.264" y="437.875" type="curve" smooth="yes"/>
      <point x="170.175" y="437.875"/>
      <point x="134.604" y="383.99"/>
      <point x="134.604" y="320.215" type="curve" smooth="yes"/>
      <point x="134.604" y="256.439"/>
      <point x="170.161" y="202.555"/>
    </contour>
  </outline>
</glyph>
<glyph name="Ydieresis" format="2">
  <advance width="531"/>
  <unicode hex="0178"/>
  <outline>
    <contour>
      <point x="456" y="623" type="line" smooth="yes"/>
      <point x="464.501" y="633.93"/>
      <point x="477.795" y="640.067"/>
      <point x="490.958" y="640.067" type="curve" smooth="yes"/>
      <point x="499.471" y="640.067"/>
      <point x="507.93" y="637.499"/>
      <point x="515" y="632" type="curve"/>
      <point x="286" y="318" type="line"/>
      <point x="286" y="42" type="line" smooth="yes"/>
      <point x="286" y="19"/>
      <point x="267" y="0"/>
      <point x="244" y="0" type="curve"/>
      <point x="244" y="318" type="line"/>
      <point x="15" y="632" type="line"/>
      <point x="22.4628" y="637.499"/>
      <point x="31.0056" y="640.067"/>
      <point x="39.477" y="640.067" type="curve" smooth="yes"/>
      <point x="52.5733" y="640.067"/>
      <point x="65.4989" y="633.93"/>
      <point x="74" y="623" type="curve" smooth="yes"/>
      <point x="265" y="360" type="line"/>
    </contour>
    <contour>
      <point x="207" y="692" type="curve" smooth="yes"/>
      <point x="185" y="692"/>
      <point x="167" y="710"/>
      <point x="167" y="732" type="curve" smooth="yes"/>
      <point x="167" y="754"/>
      <point x="185" y="772"/>
      <point x="207" y="772" type="curve" smooth="yes"/>
      <point x="229" y="772"/>
      <point x="247" y="754"/>
      <point x="247" y="732" type="curve" smooth="yes"/>
      <point x="247" y="710"/>
      <point x="229" y="692"/>
    </contour>
    <contour>
      <point x="327" y="692" type="curve" smooth="yes"/>
      <point x="305" y="692"/>
      <point x="287" y="710"/>
      <point x="287" y="732" type="curve" smooth="yes"/>
      <point x="287" y="754"/>
      <point x="305" y="772"/>
      <point x="327" y="772" type="curve" smooth="yes"/>
      <point x="349" y="772"/>
      <point x="367" y="754"/>
      <point x="367" y="732" type="curve" smooth="yes"/>
      <point x="367" y="710"/>
      <point x="349" y="692"/>
    </contour>
  </outline>
</glyph>
<glyph name="quoteleft" format="2">
  <advance width="202"/>
  <unicode hex="2018"/>
  <outline>
    <contour>
      <point x="80" y="597.66" type="line" smooth="yes"/>
      <point x="80" y="621.04"/>
      <point x="98.9492" y="639.989"/>
      <point x="122.329" y="639.989" type="curve"/>
      <point x="122.329" y="522.329" type="line" smooth="yes"/>
      <point x="122.329" y="498.949"/>
      <point x="103.38" y="480"/>
      <point x="80" y="480" type="curve"/>
    </contour>
  </outline>
</glyph>
<glyph name="quoteleftreversed" format="2">
  <advance width="122"/>
  <unicode hex="201B"/>
  <outline>
    <contour>
      <point x="40" y="597.36" type="line" smooth="yes"/>
      <point x="40" y="620.74"/>
      <point x="58.9502" y="639.69"/>
      <point x="82.3301" y="639.69" type="curve"/>
      <point x="82.3301" y="522.03" type="line" smooth="yes"/>
      <point x="82.3301" y="498.65"/>
      <point x="63.3799" y="479.7"/>
      <point x="40" y="479.7" type="curve"/>
    </contour>
  </outline>
</glyph>
<glyph name="quotedblright" format="2">
  <advance width="200"/>
  <unicode hex="201D"/>
  <outline>
    <contour>
      <point x="156" y="653" type="line"/>
      <point x="174.369" y="647.155"/>
      <point x="186.463" y="630.157"/>
      <point x="186.463" y="611.318" type="curve" smooth="yes"/>
      <point x="186.463" y="607.593"/>
      <point x="185.99" y="603.796"/>
      <point x="185" y="600" type="curve" smooth="yes"/>
      <point x="149" y="480" type="line"/>
      <point x="131.056" y="485.71"/>
      <point x="119.099" y="502.064"/>
      <point x="119.099" y="520.38" type="curve" smooth="yes"/>
      <point x="119.099" y="524.52"/>
      <point x="119.71" y="528.76"/>
      <point x="121" y="533" type="curve" smooth="yes"/>
    </contour>
    <contour>
      <point x="76" y="653" type="line"/>
      <point x="94.3686" y="647.155"/>
      <point x="106.463" y="630.157"/>
      <point x="106.463" y="611.318" type="curve" smooth="yes"/>
      <point x="106.463" y="607.593"/>
      <point x="105.99" y="603.796"/>
      <point x="105" y="600" type="curve" smooth="yes"/>
      <point x="69" y="480" type="line"/>
      <point x="51.0556" y="485.71"/>
      <point x="39.0988" y="502.064"/>
      <point x="39.0988" y="520.38" type="curve" smooth="yes"/>
      <point x="39.0988" y="524.52"/>
      <point x="39.7096" y="528.76"/>
      <point x="41" y="533" type="curve" smooth="yes"/>
    </contour>
  </outline>
</glyph>
<glyph name="dagger" format="2">
  <advance width="360"/>
  <unicode hex="2020"/>
  <outline>
    <contour>
      <point x="201.153" y="483.266" type="line"/>
      <point x="299.978" y="483.266" type="line"/>
      <point x="299.978" y="459.886"/>
      <point x="281.028" y="440.937"/>
      <point x="257.648" y="440.937" type="curve" smooth="yes"/>
      <point x="201.153" y="440.937" type="line"/>
      <point x="201.153" y="42.5781" type="line" smooth="yes"/>
      <point x="201.153" y="19.1982"/>
      <point x="182.204" y="0.249023"/>
      <point x="158.824" y="0.249023" type="curve"/>
      <point x="158.824" y="440.937" type="line"/>
      <point x="60" y="440.937" type="line"/>
      <point x="60" y="464.316"/>
      <point x="78.9492" y="483.266"/>
      <point x="102.329" y="483.266" type="curve" smooth="yes"/>
      <point x="158.824" y="483.266" type="line"/>
      <point x="158.824" y="517.891" type="line" smooth="yes"/>
      <point x="158.824" y="541.271"/>
      <point x="177.773" y="560.22"/>
      <point x="201.153" y="560.22" type="curve"/>
    </contour>
  </outline>
</glyph>
<glyph name="daggerdbl" format="2">
  <advance width="372"/>
  <unicode hex="2021"/>
  <outline>
    <contour>
      <point x="207.153" y="440.937" type="line"/>
      <point x="207.153" y="120.534" type="line"/>
      <point x="305.978" y="120.534" type="line"/>
      <point x="305.978" y="97.1543"/>
      <point x="287.028" y="78.2051"/>
      <point x="263.648" y="78.2051" type="curve" smooth="yes"/>
      <point x="207.153" y="78.2051" type="line"/>
      <point x="207.153" y="42.5781" type="line" smooth="yes"/>
      <point x="207.153" y="19.1982"/>
      <point x="188.204" y="0.249023"/>
      <point x="164.824" y="0.249023" type="curve"/>
      <point x="164.824" y="78.2051" type="line"/>
      <point x="66" y="78.2051" type="line"/>
      <point x="66" y="101.585"/>
      <point x="84.9492" y="120.534"/>
      <point x="108.329" y="120.534" type="curve" smooth="yes"/>
      <point x="164.824" y="120.534" type="line"/>
      <point x="164.824" y="440.937" type="line"/>
      <point x="66" y="440.937" type="line"/>
      <point x="66" y="464.316"/>
      <point x="84.9492" y="483.266"/>
      <point x="108.329" y="483.266" type="curve" smooth="yes"/>
      <point x="164.824" y="483.266" type="line"/>
      <point x="164.824" y="517.891" type="line" smooth="yes"/>
      <point x="164.824" y="541.271"/>
      <point x="183.773" y="560.22"/>
      <point x="207.153" y="560.22" type="curve"/>
      <point x="207.153" y="483.266" type="line"/>
      <point x="305.978" y="483.266" type="line"/>
      <point x="305.978" y="459.886"/>
      <point x="287.028" y="440.937"/>
      <point x="263.648" y="440.937" type="curve" smooth="yes"/>
    </contour>
  </outline>
</glyph>
<glyph name="perthousand" format="2">
  <advance width="795"/>
  <unicode hex="2030"/>
  <outline>
    <contour>
      <point x="672" y="625" type="line" smooth="yes"/>
      <point x="680.5" y="633"/>
      <point x="691.25" y="637"/>
      <point x="702" y="637" type="curve" smooth="yes"/>
      <point x="712.75" y="637"/>
      <point x="723.5" y="633"/>
      <point x="732" y="625" type="curve"/>
      <point x="122" y="15" type="line" smooth="yes"/>
      <point x="113.5" y="6.5"/>
      <point x="102.75" y="2.25"/>
      <point x="92" y="2.25" type="curve" smooth="yes"/>
      <point x="81.25" y="2.25"/>
      <point x="70.5" y="6.5"/>
      <point x="62" y="15" type="curve"/>
    </contour>
    <contour>
      <point x="157" y="480" type="curve" smooth="yes"/>
      <point x="113" y="480"/>
      <point x="77" y="516"/>
      <point x="77" y="560" type="curve" smooth="yes"/>
      <point x="77" y="604"/>
      <point x="113" y="640"/>
      <point x="157" y="640" type="curve" smooth="yes"/>
      <point x="201" y="640"/>
      <point x="237" y="604"/>
      <point x="237" y="560" type="curve" smooth="yes"/>
      <point x="237" y="516"/>
      <point x="201" y="480"/>
    </contour>
    <contour>
      <point x="157" y="597" type="curve" smooth="yes"/>
      <point x="136" y="597"/>
      <point x="119" y="581"/>
      <point x="119" y="560" type="curve" smooth="yes"/>
      <point x="119" y="539"/>
      <point x="136" y="522"/>
      <point x="157" y="522" type="curve" smooth="yes"/>
      <point x="178" y="522"/>
      <point x="195" y="539"/>
      <point x="195" y="560" type="curve" smooth="yes"/>
      <point x="195" y="581"/>
      <point x="178" y="597"/>
    </contour>
    <contour>
      <point x="397" y="160" type="curve" smooth="yes"/>
      <point x="441" y="160"/>
      <point x="477" y="124"/>
      <point x="477" y="80" type="curve" smooth="yes"/>
      <point x="477" y="36"/>
      <point x="441" y="-0"/>
      <point x="397" y="-0" type="curve" smooth="yes"/>
      <point x="353" y="-0"/>
      <point x="317" y="36"/>
      <point x="317" y="80" type="curve" smooth="yes"/>
      <point x="317" y="124"/>
      <point x="353" y="160"/>
    </contour>
    <contour>
      <point x="397" y="42" type="curve" smooth="yes"/>
      <point x="418" y="42"/>
      <point x="435" y="59"/>
      <point x="435" y="80" type="curve" smooth="yes"/>
      <point x="435" y="101"/>
      <point x="418" y="118"/>
      <point x="397" y="118" type="curve" smooth="yes"/>
      <point x="376" y="118"/>
      <point x="359" y="101"/>
      <point x="359" y="80" type="curve" smooth="yes"/>
      <point x="359" y="59"/>
      <point x="376" y="42"/>
    </contour>
    <contour>
      <point x="637" y="160" type="curve" smooth="yes"/>
      <point x="681" y="160"/>
      <point x="717" y="124"/>
      <point x="717" y="80" type="curve" smooth="yes"/>
      <point x="717" y="36"/>
      <point x="681" y="-0"/>
      <point x="637" y="-0" type="curve" smooth="yes"/>
      <point x="593" y="-0"/>
      <point x="557" y="36"/>
      <point x="557" y="80" type="curve" smooth="yes"/>
      <point x="557" y="124"/>
      <point x="593" y="160"/>
    </contour>
    <contour>
      <point x="637" y="42" type="curve" smooth="yes"/>
      <point x="658" y="42"/>
      <point x="675" y="59"/>
      <point x="675" y="80" type="curve" smooth="yes"/>
      <point x="675" y="101"/>
      <point x="658" y="118"/>
      <point x="637" y="118" type="curve" smooth="yes"/>
      <point x="616" y="118"/>
      <point x="599" y="101"/>
      <point x="599" y="80" type="curve" smooth="yes"/>
      <point x="599" y="59"/>
      <point x="616" y="42"/>
    </contour>
  </outline>
</glyph>
<glyph name="guilsinglleft" format="2">
  <advance width="311"/>
  <unicode hex="2039"/>
  <outline>
    <contour>
      <point x="253" y="543" type="curve"/>
      <point x="108" y="398" type="line"/>
      <point x="253" y="253" type="line"/>
      <point x="245" y="244.5"/>
      <point x="234.25" y="240.25"/>
      <point x="223.375" y="240.25" type="curve" smooth="yes"/>
      <point x="212.5" y="240.25"/>
      <point x="201.5" y="244.5"/>
      <point x="193" y="253" type="curve" smooth="yes"/>
      <point x="65" y="381" type="line" smooth="yes"/>
      <point x="60.5" y="385.5"/>
      <point x="58.25" y="391.5"/>
      <point x="58.25" y="397.625" type="curve" smooth="yes"/>
      <point x="58.25" y="403.75"/>
      <point x="60.5" y="410"/>
      <point x="65" y="415" type="curve" smooth="yes"/>
      <point x="193" y="543" type="line" smooth="yes"/>
      <point x="201.5" y="551"/>
      <point x="212.5" y="555"/>
      <point x="223.375" y="555" type="curve" smooth="yes"/>
      <point x="234.25" y="555"/>
      <point x="245" y="551"/>
    </contour>
  </outline>
</glyph>
<glyph name="guilsinglright" format="2">
  <advance width="311"/>
  <unicode hex="203A"/>
  <outline>
    <contour>
      <point x="245" y="415" type="line" smooth="yes"/>
      <point x="249.5" y="410"/>
      <point x="251.75" y="403.75"/>
      <point x="251.75" y="397.625" type="curve" smooth="yes"/>
      <point x="251.75" y="391.5"/>
      <point x="249.5" y="385.5"/>
      <point x="245" y="381" type="curve" smooth="yes"/>
      <point x="117" y="253" type="line" smooth="yes"/>
      <point x="108.5" y="244.5"/>
      <point x="97.75" y="240.25"/>
      <point x="87" y="240.25" type="curve" smooth="yes"/>
      <point x="76.25" y="240.25"/>
      <point x="65.5" y="244.5"/>
      <point x="57" y="253" type="curve"/>
      <point x="202" y="398" type="line"/>
      <point x="57" y="543" type="line"/>
      <point x="65.5" y="551"/>
      <point x="76.25" y="555"/>
      <point x="87" y="555" type="curve" smooth="yes"/>
      <point x="97.75" y="555"/>
      <point x="108.5" y="551"/>
      <point x="117" y="543" type="curve" smooth="yes"/>
    </contour>
  </outline>
</glyph>
<glyph name="eightsuperior" format="2">
  <advance width="313"/>
  <unicode hex="2078"/>
  <outline>
    <contour>
      <point x="207.636" y="609.294" type="curve"/>
      <point x="223.241" y="595.706"/>
      <point x="233.132" y="576.079"/>
      <point x="233.132" y="554.195" type="curve" smooth="yes"/>
      <point x="233.132" y="513.291"/>
      <point x="198.774" y="480.006"/>
      <point x="156.559" y="480.006" type="curve" smooth="yes"/>
      <point x="114.343" y="480.006"/>
      <point x="80" y="513.291"/>
      <point x="80" y="554.195" type="curve" smooth="yes"/>
      <point x="80" y="576.065"/>
      <point x="89.8906" y="595.706"/>
      <point x="105.481" y="609.294" type="curve"/>
      <point x="94.6738" y="621.429"/>
      <point x="87.915" y="637.218"/>
      <point x="87.915" y="654.699" type="curve" smooth="yes"/>
      <point x="87.915" y="692.541"/>
      <point x="118.717" y="723.343"/>
      <point x="156.559" y="723.343" type="curve" smooth="yes"/>
      <point x="194.4" y="723.343"/>
      <point x="225.202" y="692.556"/>
      <point x="225.202" y="654.699" type="curve" smooth="yes"/>
      <point x="225.202" y="637.218"/>
      <point x="218.43" y="621.429"/>
    </contour>
    <contour>
      <point x="130.229" y="654.699" type="curve" smooth="yes"/>
      <point x="130.229" y="640.194"/>
      <point x="142.039" y="628.385"/>
      <point x="156.544" y="628.385" type="curve" smooth="yes"/>
      <point x="171.049" y="628.385"/>
      <point x="182.858" y="640.194"/>
      <point x="182.858" y="654.699" type="curve" smooth="yes"/>
      <point x="182.858" y="669.204"/>
      <point x="171.049" y="681.014"/>
      <point x="156.544" y="681.014" type="curve" smooth="yes"/>
      <point x="142.039" y="681.014"/>
      <point x="130.229" y="669.204"/>
    </contour>
    <contour>
      <point x="156.544" y="522.322" type="curve" smooth="yes"/>
      <point x="175.423" y="522.322"/>
      <point x="190.788" y="536.615"/>
      <point x="190.788" y="554.182" type="curve" smooth="yes"/>
      <point x="190.788" y="571.748"/>
      <point x="175.423" y="586.041"/>
      <point x="156.544" y="586.041" type="curve" smooth="yes"/>
      <point x="137.665" y="586.041"/>
      <point x="122.313" y="571.748"/>
      <point x="122.313" y="554.182" type="curve" smooth="yes"/>
      <point x="122.313" y="536.615"/>
      <point x="137.665" y="522.322"/>
    </contour>
  </outline>
</glyph>
<glyph name="trademark" format="2">
  <advance width="482"/>
  <unicode hex="2122"/>
  <outline>
    <contour>
      <point x="366" y="642" type="curve" smooth="yes"/>
      <point x="429" y="402" type="line"/>
      <point x="425.221" y="401.014"/>
      <point x="421.443" y="400.541"/>
      <point x="417.74" y="400.541" type="curve" smooth="yes"/>
      <point x="398.902" y="400.541"/>
      <point x="382.014" y="412.779"/>
      <point x="377" y="432" type="curve" smooth="yes"/>
      <point x="342" y="566" type="line"/>
      <point x="306" y="468" type="line" smooth="yes"/>
      <point x="303" y="460"/>
      <point x="295" y="454"/>
      <point x="287" y="454" type="curve" smooth="yes"/>
      <point x="278" y="454"/>
      <point x="270" y="460"/>
      <point x="267" y="468" type="curve" smooth="yes"/>
      <point x="231" y="565" type="line"/>
      <point x="198" y="432" type="line" smooth="yes"/>
      <point x="193.787" y="413.464"/>
      <point x="176.796" y="400.606"/>
      <point x="157.793" y="400.606" type="curve" smooth="yes"/>
      <point x="154.242" y="400.606"/>
      <point x="150.621" y="401.055"/>
      <point x="147" y="402" type="curve"/>
      <point x="206" y="642" type="line" smooth="yes"/>
      <point x="209" y="651"/>
      <point x="217" y="657"/>
      <point x="226" y="658" type="curve" smooth="yes"/>
      <point x="235" y="658"/>
      <point x="244" y="652"/>
      <point x="247" y="644" type="curve" smooth="yes"/>
      <point x="287" y="537" type="line"/>
      <point x="326" y="644" type="line" smooth="yes"/>
      <point x="329" y="652"/>
      <point x="338" y="658"/>
      <point x="347" y="658" type="curve" smooth="yes"/>
      <point x="356" y="657"/>
      <point x="364" y="651"/>
    </contour>
    <contour>
      <point x="168" y="615" type="curve"/>
      <point x="98" y="615" type="line"/>
      <point x="98" y="400" type="line"/>
      <point x="75" y="400"/>
      <point x="56" y="419"/>
      <point x="56" y="443" type="curve" smooth="yes"/>
      <point x="56" y="615" type="line"/>
      <point x="29" y="615" type="line" smooth="yes"/>
      <point x="6" y="615"/>
      <point x="-13" y="634"/>
      <point x="-13" y="658" type="curve"/>
      <point x="125" y="658" type="line" smooth="yes"/>
      <point x="149" y="658"/>
      <point x="168" y="639"/>
    </contour>
  </outline>
</glyph>
<glyph name="minus" format="2">
  <advance width="399"/>
  <unicode hex="2212"/>
  <outline>
    <contour>
      <point x="82.3291" y="402.02" type="curve" smooth="yes"/>
      <point x="359.951" y="402.02" type="line"/>
      <point x="359.951" y="378.64"/>
      <point x="341.002" y="359.69"/>
      <point x="317.622" y="359.69" type="curve" smooth="yes"/>
      <point x="40" y="359.69" type="line"/>
      <point x="40" y="383.07"/>
      <point x="58.9492" y="402.02"/>
    </contour>
  </outline>
</glyph>
<glyph name="quoteleft.alt1" format="2">
  <advance width="118"/>
  <unicode hex="F000"/>
  <outline>
    <contour>
      <point x="78" y="533" type="line" smooth="yes"/>
      <point x="78.9904" y="529.204"/>
      <point x="79.4631" y="525.407"/>
      <point x="79.4631" y="521.682" type="curve" smooth="yes"/>
      <point x="79.4631" y="502.843"/>
      <point x="67.3686" y="485.845"/>
      <point x="49" y="480" type="curve"/>
      <point x="14" y="600" type="line" smooth="yes"/>
      <point x="12.7096" y="604.24"/>
      <point x="12.0988" y="608.48"/>
      <point x="12.0988" y="612.62" type="curve" smooth="yes"/>
      <point x="12.0988" y="630.936"/>
      <point x="24.0556" y="647.29"/>
      <point x="42" y="653" type="curve"/>
    </contour>
  </outline>
</glyph>
<glyph name="A.alt1" format="2">
  <advance width="582"/>
  <unicode hex="F001"/>
  <outline>
    <contour>
      <point x="511" y="46" type="curve" smooth="yes"/>
      <point x="532" y="43"/>
      <point x="548" y="24"/>
      <point x="549" y="2" type="curve" smooth="yes"/>
      <point x="546" y="2"/>
      <point x="542" y="2"/>
      <point x="538" y="2" type="curve" smooth="yes"/>
      <point x="472" y="2"/>
      <point x="428" y="29"/>
      <point x="384" y="56" type="curve" smooth="yes"/>
      <point x="345.34" y="80.5164"/>
      <point x="307.568" y="103.254"/>
      <point x="253.918" y="103.254" type="curve" smooth="yes"/>
      <point x="250.672" y="103.254"/>
      <point x="247.367" y="103.171"/>
      <point x="244" y="103" type="curve" smooth="yes"/>
      <point x="165" y="103"/>
      <point x="94" y="67"/>
      <point x="69" y="15" type="curve" smooth="yes"/>
      <point x="64.5395" y="5.33559"/>
      <point x="55.6577" y="0.0925159"/>
      <point x="46.0522" y="0.0925159" type="curve" smooth="yes"/>
      <point x="42.737" y="0.0925159"/>
      <point x="39.3356" y="0.717082"/>
      <point x="36" y="2" type="curve" smooth="yes"/>
      <point x="20" y="9" type="line"/>
      <point x="296" y="628" type="line" smooth="yes"/>
      <point x="299" y="635"/>
      <point x="307" y="640"/>
      <point x="315" y="640" type="curve" smooth="yes"/>
      <point x="323" y="640"/>
      <point x="331" y="635"/>
      <point x="334" y="628" type="curve" smooth="yes"/>
      <point x="542" y="163" type="line"/>
      <point x="536.294" y="160.666"/>
      <point x="530.387" y="159.542"/>
      <point x="524.61" y="159.542" type="curve" smooth="yes"/>
      <point x="508.109" y="159.542"/>
      <point x="492.666" y="168.706"/>
      <point x="486" y="185" type="curve" smooth="yes"/>
      <point x="315" y="567" type="line"/>
      <point x="113" y="114" type="line"/>
      <point x="150" y="134"/>
      <point x="195" y="146"/>
      <point x="243" y="146" type="curve" smooth="yes"/>
      <point x="246.413" y="146.144"/>
      <point x="249.77" y="146.214"/>
      <point x="253.074" y="146.214" type="curve" smooth="yes"/>
      <point x="318.516" y="146.214"/>
      <point x="363.211" y="118.654"/>
      <point x="407" y="92" type="curve" smooth="yes"/>
      <point x="439" y="72"/>
      <point x="470" y="53"/>
    </contour>
  </outline>
</glyph>
<glyph name="D.alt1" format="2">
  <advance width="682"/>
  <unicode hex="F004"/>
  <outline>
    <contour>
      <point x="101" y="642" type="curve" smooth="yes"/>
      <point x="101.611" y="642.002"/>
      <point x="102.222" y="642.003"/>
      <point x="102.833" y="642.003" type="curve" smooth="yes"/>
      <point x="377.995" y="642.003"/>
      <point x="602" y="417.387"/>
      <point x="602" y="141" type="curve"/>
      <point x="601" y="141" type="line" smooth="yes"/>
      <point x="579" y="141"/>
      <point x="560" y="159"/>
      <point x="558" y="182" type="curve" smooth="yes"/>
      <point x="538" y="409"/>
      <point x="352" y="589"/>
      <point x="122" y="600" type="curve"/>
      <point x="122" y="240" type="line" smooth="yes"/>
      <point x="122" y="210"/>
      <point x="130" y="181"/>
      <point x="144" y="155" type="curve"/>
      <point x="185" y="197"/>
      <point x="241" y="221"/>
      <point x="301" y="221" type="curve" smooth="yes"/>
      <point x="371" y="221"/>
      <point x="435" y="189"/>
      <point x="478" y="133" type="curve" smooth="yes"/>
      <point x="483" y="125"/>
      <point x="483" y="115"/>
      <point x="478" y="107" type="curve" smooth="yes"/>
      <point x="435" y="51"/>
      <point x="371" y="19"/>
      <point x="301" y="19" type="curve" smooth="yes"/>
      <point x="241" y="19"/>
      <point x="185" y="43"/>
      <point x="144" y="85" type="curve"/>
      <point x="136" y="70"/>
      <point x="130" y="54"/>
      <point x="126" y="38" type="curve" smooth="yes"/>
      <point x="122" y="16"/>
      <point x="103" y="-0"/>
      <point x="81" y="-0" type="curve" smooth="yes"/>
      <point x="80" y="-0" type="line"/>
      <point x="80" y="43"/>
      <point x="92" y="84"/>
      <point x="116" y="120" type="curve"/>
      <point x="96" y="151"/>
      <point x="84" y="186"/>
      <point x="81" y="222" type="curve"/>
      <point x="80" y="222" type="line"/>
      <point x="80" y="621" type="line" smooth="yes"/>
      <point x="80" y="633"/>
      <point x="89" y="642"/>
    </contour>
    <contour>
      <point x="301" y="179" type="curve" smooth="yes"/>
      <point x="250" y="179"/>
      <point x="203" y="158"/>
      <point x="169" y="120" type="curve"/>
      <point x="203" y="82"/>
      <point x="250" y="61"/>
      <point x="301" y="61" type="curve" smooth="yes"/>
      <point x="352" y="61"/>
      <point x="400" y="82"/>
      <point x="433" y="120" type="curve"/>
      <point x="400" y="158"/>
      <point x="352" y="179"/>
    </contour>
  </outline>
</glyph>
<glyph name="E.alt1" format="2">
  <advance width="649"/>
  <unicode hex="F005"/>
  <outline>
    <contour>
      <point x="523" y="182" type="curve" smooth="yes"/>
      <point x="528" y="203"/>
      <point x="547" y="217"/>
      <point x="569" y="217" type="curve"/>
      <point x="569" y="98"/>
      <point x="459" y="0"/>
      <point x="325" y="0" type="curve" smooth="yes"/>
      <point x="190" y="0"/>
      <point x="80" y="98"/>
      <point x="80" y="217" type="curve" smooth="yes"/>
      <point x="80" y="310"/>
      <point x="145" y="389"/>
      <point x="237" y="420" type="curve"/>
      <point x="206" y="443"/>
      <point x="186" y="478"/>
      <point x="186" y="517" type="curve" smooth="yes"/>
      <point x="186" y="586"/>
      <point x="248" y="641"/>
      <point x="325" y="641" type="curve"/>
      <point x="325" y="619"/>
      <point x="310" y="600"/>
      <point x="289" y="593" type="curve" smooth="yes"/>
      <point x="253" y="581"/>
      <point x="228" y="552"/>
      <point x="228" y="517" type="curve" smooth="yes"/>
      <point x="228" y="476"/>
      <point x="264" y="441"/>
      <point x="310" y="436" type="curve" smooth="yes"/>
      <point x="319" y="435"/>
      <point x="325" y="428"/>
      <point x="325" y="420" type="curve" smooth="yes"/>
      <point x="325" y="408" type="line" smooth="yes"/>
      <point x="325" y="400"/>
      <point x="318" y="393"/>
      <point x="310" y="392" type="curve" smooth="yes"/>
      <point x="205" y="385"/>
      <point x="122" y="310"/>
      <point x="122" y="217" type="curve" smooth="yes"/>
      <point x="122" y="121"/>
      <point x="213" y="42"/>
      <point x="325" y="42" type="curve" smooth="yes"/>
      <point x="422" y="42"/>
      <point x="504" y="102"/>
    </contour>
  </outline>
</glyph>
<glyph name="I.alt1" format="2">
  <advance width="362"/>
  <unicode hex="F009"/>
  <outline>
    <contour>
      <point x="181.054" y="615.514" type="curve"/>
      <point x="212.392" y="631.485"/>
      <point x="247.086" y="639.938"/>
      <point x="282.135" y="639.938" type="curve"/>
      <point x="282.135" y="617.94"/>
      <point x="267.108" y="598.313"/>
      <point x="245.562" y="593.826" type="curve" smooth="yes"/>
      <point x="230.592" y="590.708"/>
      <point x="216.045" y="585.601"/>
      <point x="202.231" y="578.771" type="curve"/>
      <point x="202.231" y="42.3359" type="line" smooth="yes"/>
      <point x="202.231" y="18.9561"/>
      <point x="183.282" y="0.00683594"/>
      <point x="159.902" y="0.00683594" type="curve"/>
      <point x="159.902" y="578.87" type="line"/>
      <point x="146.104" y="585.686"/>
      <point x="131.542" y="590.709"/>
      <point x="116.586" y="593.827" type="curve" smooth="yes"/>
      <point x="95.0264" y="598.314"/>
      <point x="80" y="617.927"/>
      <point x="80" y="639.938" type="curve"/>
      <point x="115.049" y="639.938"/>
      <point x="149.73" y="631.485"/>
    </contour>
  </outline>
</glyph>
<glyph name="L.alt1" format="2">
  <advance width="562"/>
  <unicode hex="F00C"/>
  <outline>
    <contour>
      <point x="477.766" y="132.716" type="curve" smooth="yes"/>
      <point x="483.48" y="125.139"/>
      <point x="483.467" y="114.851"/>
      <point x="477.752" y="107.26" type="curve" smooth="yes"/>
      <point x="435.465" y="51.0752"/>
      <point x="371.082" y="18.835"/>
      <point x="301.126" y="18.835" type="curve" smooth="yes"/>
      <point x="241.132" y="18.835"/>
      <point x="185.215" y="42.5537"/>
      <point x="143.846" y="84.7695" type="curve"/>
      <point x="135.761" y="69.9258"/>
      <point x="129.892" y="54.123"/>
      <point x="126.336" y="37.7422" type="curve" smooth="yes"/>
      <point x="121.651" y="16.0557"/>
      <point x="103.422" y="-0.000976562"/>
      <point x="81.2275" y="-0.000976562" type="curve" smooth="yes"/>
      <point x="80" y="-0.000976562" type="line"/>
      <point x="80" y="42.9492"/>
      <point x="92.2617" y="84.1211"/>
      <point x="115.6" y="119.988" type="curve"/>
      <point x="92.2627" y="155.855"/>
      <point x="80.001" y="197.027"/>
      <point x="80.001" y="239.978" type="curve" smooth="yes"/>
      <point x="80.001" y="639.902" type="line"/>
      <point x="103.381" y="639.902"/>
      <point x="122.33" y="620.953"/>
      <point x="122.344" y="597.573" type="curve" smooth="yes"/>
      <point x="122.344" y="239.978" type="line" smooth="yes"/>
      <point x="122.344" y="210.065"/>
      <point x="129.723" y="181.197"/>
      <point x="143.86" y="155.207" type="curve"/>
      <point x="185.229" y="197.423"/>
      <point x="241.132" y="221.142"/>
      <point x="301.141" y="221.142" type="curve" smooth="yes"/>
      <point x="371.11" y="221.142"/>
      <point x="435.479" y="188.915"/>
    </contour>
    <contour>
      <point x="301.142" y="61.1494" type="curve" smooth="yes"/>
      <point x="352.177" y="61.1494"/>
      <point x="399.543" y="82.3848"/>
      <point x="433.448" y="119.973" type="curve"/>
      <point x="399.557" y="157.547"/>
      <point x="352.177" y="178.796"/>
      <point x="301.142" y="178.796" type="curve" smooth="yes"/>
      <point x="250.106" y="178.796"/>
      <point x="202.74" y="157.547"/>
      <point x="168.835" y="119.973" type="curve"/>
      <point x="202.74" y="82.3984"/>
      <point x="250.106" y="61.1494"/>
    </contour>
  </outline>
</glyph>
<glyph name="N.alt1" format="2">
  <advance width="682"/>
  <unicode hex="F00E"/>
  <outline>
    <contour>
      <point x="559.962" y="639.931" type="line"/>
      <point x="583.342" y="639.931"/>
      <point x="602.276" y="620.98"/>
      <point x="602.276" y="597.601" type="curve" smooth="yes"/>
      <point x="602.276" y="0.0136719" type="line"/>
      <point x="578.896" y="0.0136719"/>
      <point x="559.947" y="18.9629"/>
      <point x="559.947" y="42.3428" type="curve" smooth="yes"/>
      <point x="559.947" y="42.7236" type="line" smooth="yes"/>
      <point x="556.138" y="205.931"/>
      <point x="454.054" y="232.16"/>
      <point x="335.871" y="262.524" type="curve" smooth="yes"/>
      <point x="257.394" y="282.688"/>
      <point x="171.987" y="304.713"/>
      <point x="122.335" y="374.866" type="curve"/>
      <point x="122.335" y="0" type="line"/>
      <point x="98.9551" y="-0"/>
      <point x="80.0059" y="18.9492"/>
      <point x="80.0059" y="42.3291" type="curve" smooth="yes"/>
      <point x="80.0059" y="639.931" type="line"/>
      <point x="103.386" y="639.931"/>
      <point x="122.335" y="620.981"/>
      <point x="122.335" y="597.602" type="curve" smooth="yes"/>
      <point x="122.335" y="523.3" type="line" smooth="yes"/>
      <point x="126.145" y="360.107"/>
      <point x="228.229" y="333.878"/>
      <point x="346.411" y="303.514" type="curve" smooth="yes"/>
      <point x="424.903" y="283.351"/>
      <point x="510.31" y="261.325"/>
      <point x="559.962" y="191.158" type="curve"/>
    </contour>
  </outline>
</glyph>
<glyph name="P.alt1" format="2">
  <advance width="629"/>
  <unicode hex="F010"/>
  <outline>
    <contour>
      <point x="314.475" y="600.353" type="curve" smooth="yes"/>
      <point x="208.525" y="600.353"/>
      <point x="122.329" y="514.153"/>
      <point x="122.329" y="408.204" type="curve" smooth="yes"/>
      <point x="122.329" y="386.235"/>
      <point x="126.167" y="364.407"/>
      <point x="133.574" y="343.751" type="curve"/>
      <point x="177.737" y="397.312"/>
      <point x="244.138" y="429.369"/>
      <point x="314.475" y="429.369" type="curve" smooth="yes"/>
      <point x="397.722" y="429.369"/>
      <point x="475.438" y="384.458"/>
      <point x="517.329" y="312.16" type="curve" smooth="yes"/>
      <point x="521.097" y="305.655"/>
      <point x="521.097" y="297.43"/>
      <point x="517.329" y="290.925" type="curve" smooth="yes"/>
      <point x="475.438" y="218.627"/>
      <point x="397.707" y="173.716"/>
      <point x="314.474" y="173.716" type="curve" smooth="yes"/>
      <point x="244.137" y="173.716"/>
      <point x="177.736" y="205.773"/>
      <point x="133.573" y="259.334" type="curve"/>
      <point x="126.166" y="238.678"/>
      <point x="122.328" y="216.864"/>
      <point x="122.328" y="194.882" type="curve" smooth="yes"/>
      <point x="122.328" y="-0.000976562" type="line"/>
      <point x="98.9482" y="-0.000976562"/>
      <point x="79.999" y="18.9482"/>
      <point x="79.999" y="42.3281" type="curve" smooth="yes"/>
      <point x="79.999" y="198.043" type="line"/>
      <point x="80.0977" y="198.043" type="line"/>
      <point x="80.5918" y="233.98"/>
      <point x="89.3818" y="269.466"/>
      <point x="105.834" y="301.551" type="curve"/>
      <point x="88.9023" y="334.582"/>
      <point x="79.999" y="371.196"/>
      <point x="79.999" y="408.206" type="curve" smooth="yes"/>
      <point x="79.999" y="537.493"/>
      <point x="185.187" y="642.681"/>
      <point x="314.474" y="642.681" type="curve" smooth="yes"/>
      <point x="425.376" y="642.681"/>
      <point x="521.985" y="563.935"/>
      <point x="544.194" y="455.432" type="curve" smooth="yes"/>
      <point x="547.341" y="439.968"/>
      <point x="548.949" y="424.08"/>
      <point x="548.949" y="408.192" type="curve"/>
      <point x="548.188" y="408.192" type="line" smooth="yes"/>
      <point x="525.711" y="408.192"/>
      <point x="507.241" y="424.546"/>
      <point x="502.782" y="446.571" type="curve" smooth="yes"/>
      <point x="502.769" y="446.698"/>
      <point x="502.74" y="446.825"/>
      <point x="502.712" y="446.952" type="curve" smooth="yes"/>
      <point x="484.524" y="535.843"/>
      <point x="405.355" y="600.353"/>
    </contour>
    <contour>
      <point x="314.475" y="387.039" type="curve" smooth="yes"/>
      <point x="250.445" y="387.039"/>
      <point x="190.38" y="354.572"/>
      <point x="154.866" y="301.548" type="curve"/>
      <point x="190.38" y="248.523"/>
      <point x="250.444" y="216.057"/>
      <point x="314.474" y="216.057" type="curve" smooth="yes"/>
      <point x="378.503" y="216.057"/>
      <point x="438.554" y="248.523"/>
      <point x="474.082" y="301.548" type="curve"/>
      <point x="438.568" y="354.572"/>
      <point x="378.504" y="387.039"/>
    </contour>
  </outline>
</glyph>
<glyph name="Q.alt1" format="2">
  <advance width="798"/>
  <unicode hex="F011"/>
  <outline>
    <contour>
      <point x="717.927" y="332.297" type="curve" smooth="yes"/>
      <point x="717.927" y="245.607"/>
      <point x="683.315" y="167.029"/>
      <point x="627.201" y="109.519" type="curve"/>
      <point x="655.266" y="76.8262"/>
      <point x="670.038" y="39.3369"/>
      <point x="670.038" y="-0.000976562" type="curve"/>
      <point x="648.126" y="-0.000976562"/>
      <point x="628.866" y="14.1797"/>
      <point x="622.122" y="35.0195" type="curve" smooth="yes"/>
      <point x="616.888" y="51.1748"/>
      <point x="607.942" y="66.71"/>
      <point x="595.653" y="81.2148" type="curve"/>
      <point x="541.458" y="38.6738"/>
      <point x="473.195" y="13.2344"/>
      <point x="398.964" y="13.2344" type="curve" smooth="yes"/>
      <point x="222.805" y="13.2344"/>
      <point x="80.001" y="156.081"/>
      <point x="80.001" y="332.297" type="curve" smooth="yes"/>
      <point x="80.001" y="508.513"/>
      <point x="222.805" y="651.359"/>
      <point x="398.964" y="651.359" type="curve" smooth="yes"/>
      <point x="575.123" y="651.359"/>
      <point x="717.927" y="508.513"/>
    </contour>
    <contour>
      <point x="122.329" y="332.296" type="curve" smooth="yes"/>
      <point x="122.329" y="257.049"/>
      <point x="152.583" y="188.801"/>
      <point x="201.473" y="138.866" type="curve"/>
      <point x="252.563" y="179.812"/>
      <point x="323.098" y="203.094"/>
      <point x="398.951" y="203.094" type="curve" smooth="yes"/>
      <point x="474.805" y="203.094"/>
      <point x="545.339" y="179.799"/>
      <point x="596.43" y="138.866" type="curve"/>
      <point x="645.319" y="188.801"/>
      <point x="675.599" y="257.049"/>
      <point x="675.599" y="332.296" type="curve" smooth="yes"/>
      <point x="675.599" y="484.892"/>
      <point x="551.504" y="609.028"/>
      <point x="398.964" y="609.028" type="curve" smooth="yes"/>
      <point x="246.424" y="609.028"/>
      <point x="122.329" y="484.892"/>
    </contour>
    <contour>
      <point x="234.108" y="110.591" type="curve"/>
      <point x="280.219" y="76.1914"/>
      <point x="337.151" y="55.5635"/>
      <point x="398.966" y="55.5635" type="curve" smooth="yes"/>
      <point x="460.78" y="55.5635"/>
      <point x="517.713" y="76.1914"/>
      <point x="563.823" y="110.591" type="curve"/>
      <point x="520.803" y="142.253"/>
      <point x="461.203" y="160.751"/>
      <point x="398.966" y="160.751" type="curve" smooth="yes"/>
      <point x="336.729" y="160.751"/>
      <point x="277.129" y="142.253"/>
    </contour>
  </outline>
</glyph>
<glyph name="R.alt1" format="2">
  <advance width="643"/>
  <unicode hex="F012"/>
  <outline>
    <contour>
      <point x="400.812" y="318.258" type="curve" smooth="yes"/>
      <point x="370.151" y="318.259" type="line"/>
      <point x="484.426" y="257.982"/>
      <point x="562.537" y="138.021"/>
      <point x="562.537" y="0.0996094" type="curve"/>
      <point x="520.829" y="0.0996094"/>
      <point x="518.205" y="35.8252"/>
      <point x="518.205" y="35.8252" type="curve"/>
      <point x="518.148" y="35.7549" type="line"/>
      <point x="500.37" y="193.925"/>
      <point x="365.862" y="317.286"/>
      <point x="203.022" y="317.286" type="curve"/>
      <point x="203.022" y="318.26" type="line"/>
      <point x="122.725" y="318.26" type="line"/>
      <point x="122.725" y="42.3311" type="line" smooth="yes"/>
      <point x="122.725" y="18.9512"/>
      <point x="103.775" y="0.00195312"/>
      <point x="80.3955" y="0.00195312" type="curve"/>
      <point x="80.3955" y="318.26" type="line"/>
      <point x="80" y="318.26" type="line"/>
      <point x="80" y="595.486" type="line" smooth="yes"/>
      <point x="80" y="618.16"/>
      <point x="98.3848" y="636.545"/>
      <point x="121.059" y="636.545" type="curve" smooth="yes"/>
      <point x="400.812" y="636.545" type="line" smooth="yes"/>
      <point x="488.701" y="636.545"/>
      <point x="559.955" y="565.291"/>
      <point x="559.955" y="477.401" type="curve" smooth="yes"/>
      <point x="559.955" y="389.512"/>
      <point x="488.701" y="318.258"/>
    </contour>
    <contour>
      <point x="122.329" y="594.216" type="line"/>
      <point x="122.329" y="360.587" type="line"/>
      <point x="400.812" y="360.587" type="line" smooth="yes"/>
      <point x="465.223" y="360.587"/>
      <point x="517.626" y="412.99"/>
      <point x="517.626" y="477.401" type="curve" smooth="yes"/>
      <point x="517.626" y="541.812"/>
      <point x="465.223" y="594.216"/>
      <point x="400.812" y="594.216" type="curve" smooth="yes"/>
    </contour>
  </outline>
</glyph>
<glyph name="threeslashfour.liga" format="2">
  <advance width="570"/>
  <unicode hex="F01A"/>
  <outline>
    <contour>
      <point x="462" y="95" type="line"/>
      <point x="478" y="95"/>
      <point x="490" y="82"/>
      <point x="490" y="67" type="curve" smooth="yes"/>
      <point x="490" y="52" type="line"/>
      <point x="462" y="52" type="line"/>
      <point x="462" y="42" type="line" smooth="yes"/>
      <point x="462" y="19"/>
      <point x="443" y="0"/>
      <point x="420" y="0" type="curve"/>
      <point x="420" y="52" type="line"/>
      <point x="334" y="52" type="line" smooth="yes"/>
      <point x="326" y="52"/>
      <point x="319" y="57"/>
      <point x="315" y="64" type="curve" smooth="yes"/>
      <point x="312" y="71"/>
      <point x="312" y="80"/>
      <point x="317" y="86" type="curve" smooth="yes"/>
      <point x="424" y="233" type="line" smooth="yes"/>
      <point x="429" y="240"/>
      <point x="439" y="243"/>
      <point x="448" y="241" type="curve" smooth="yes"/>
      <point x="456" y="238"/>
      <point x="462" y="230"/>
      <point x="462" y="221" type="curve" smooth="yes"/>
    </contour>
    <contour>
      <point x="420" y="95" type="line"/>
      <point x="420" y="155" type="line"/>
      <point x="376" y="95" type="line"/>
    </contour>
    <contour>
      <point x="233" y="324" type="curve" smooth="yes"/>
      <point x="233" y="283"/>
      <point x="199" y="250"/>
      <point x="157" y="250" type="curve" smooth="yes"/>
      <point x="114" y="250"/>
      <point x="80" y="283"/>
      <point x="80" y="324" type="curve"/>
      <point x="107" y="324" type="line" smooth="yes"/>
      <point x="114" y="324"/>
      <point x="122" y="320"/>
      <point x="125" y="312" type="curve" smooth="yes"/>
      <point x="130" y="301"/>
      <point x="142" y="292"/>
      <point x="157" y="292" type="curve" smooth="yes"/>
      <point x="175" y="292"/>
      <point x="191" y="307"/>
      <point x="191" y="324" type="curve" smooth="yes"/>
      <point x="191" y="339"/>
      <point x="180" y="351"/>
      <point x="166" y="355" type="curve" smooth="yes"/>
      <point x="160" y="356"/>
      <point x="157" y="361"/>
      <point x="157" y="366" type="curve" smooth="yes"/>
      <point x="157" y="389" type="line" smooth="yes"/>
      <point x="157" y="394"/>
      <point x="160" y="398"/>
      <point x="165" y="400" type="curve" smooth="yes"/>
      <point x="175" y="403"/>
      <point x="183" y="413"/>
      <point x="183" y="425" type="curve" smooth="yes"/>
      <point x="183" y="439"/>
      <point x="171" y="451"/>
      <point x="157" y="451" type="curve" smooth="yes"/>
      <point x="146" y="451"/>
      <point x="138" y="445"/>
      <point x="133" y="437" type="curve" smooth="yes"/>
      <point x="130" y="430"/>
      <point x="123" y="425"/>
      <point x="115" y="425" type="curve" smooth="yes"/>
      <point x="88" y="425" type="line"/>
      <point x="88" y="462.4"/>
      <point x="118.924" y="493.456"/>
      <point x="156.766" y="493.456" type="curve" smooth="yes"/>
      <point x="161.421" y="493.456"/>
      <point x="166.181" y="492.986"/>
      <point x="171" y="492" type="curve" smooth="yes"/>
      <point x="197" y="486"/>
      <point x="219" y="465"/>
      <point x="224" y="438" type="curve" smooth="yes"/>
      <point x="224.76" y="433.629"/>
      <point x="225.123" y="429.331"/>
      <point x="225.123" y="425.132" type="curve" smooth="yes"/>
      <point x="225.123" y="407.236"/>
      <point x="218.53" y="391.15"/>
      <point x="208" y="379" type="curve"/>
      <point x="223" y="366"/>
      <point x="233" y="346"/>
    </contour>
    <contour>
      <point x="375" y="458" type="line" smooth="yes"/>
      <point x="382.106" y="472.922"/>
      <point x="397.291" y="481.281"/>
      <point x="413.02" y="481.281" type="curve" smooth="yes"/>
      <point x="419.426" y="481.281"/>
      <point x="425.922" y="479.894"/>
      <point x="432" y="477" type="curve"/>
      <point x="211" y="35" type="line" smooth="yes"/>
      <point x="203.213" y="20.1333"/>
      <point x="188.409" y="11.2807"/>
      <point x="172.975" y="11.2807" type="curve" smooth="yes"/>
      <point x="166.608" y="11.2807"/>
      <point x="160.133" y="12.7873"/>
      <point x="154" y="16" type="curve"/>
    </contour>
  </outline>
</glyph>
<glyph name="twoslashthree.liga" format="2">
  <advance width="586"/>
  <unicode hex="F01B"/>
  <outline>
    <contour>
      <point x="152" y="285" type="line"/>
      <point x="200" y="285" type="line" smooth="yes"/>
      <point x="223" y="285"/>
      <point x="242" y="266"/>
      <point x="242" y="243" type="curve"/>
      <point x="101" y="243" type="line" smooth="yes"/>
      <point x="93" y="243"/>
      <point x="85" y="248"/>
      <point x="82" y="256" type="curve" smooth="yes"/>
      <point x="78" y="264"/>
      <point x="80" y="273"/>
      <point x="86" y="279" type="curve" smooth="yes"/>
      <point x="191" y="384" type="line" smooth="yes"/>
      <point x="198.608" y="391.608"/>
      <point x="201.392" y="400.421"/>
      <point x="201.392" y="408.657" type="curve" smooth="yes"/>
      <point x="201.392" y="413.412"/>
      <point x="200.464" y="417.974"/>
      <point x="199" y="422" type="curve" smooth="yes"/>
      <point x="195" y="434"/>
      <point x="184" y="442"/>
      <point x="171" y="443" type="curve" smooth="yes"/>
      <point x="170" y="443"/>
      <point x="169" y="443"/>
      <point x="168" y="443" type="curve" smooth="yes"/>
      <point x="157" y="443"/>
      <point x="147" y="439"/>
      <point x="140" y="433" type="curve" smooth="yes"/>
      <point x="127.498" y="423.44"/>
      <point x="113.373" y="417.665"/>
      <point x="98.8195" y="417.665" type="curve" smooth="yes"/>
      <point x="93.5834" y="417.665"/>
      <point x="88.2917" y="418.412"/>
      <point x="83" y="420" type="curve"/>
      <point x="93" y="458"/>
      <point x="128" y="485"/>
      <point x="168" y="485" type="curve" smooth="yes"/>
      <point x="170" y="485"/>
      <point x="172" y="485"/>
      <point x="174" y="485" type="curve" smooth="yes"/>
      <point x="203" y="483"/>
      <point x="228" y="464"/>
      <point x="239" y="436" type="curve" smooth="yes"/>
      <point x="242.451" y="426.901"/>
      <point x="244.131" y="417.605"/>
      <point x="244.131" y="408.452" type="curve" smooth="yes"/>
      <point x="244.131" y="388.433"/>
      <point x="236.097" y="369.097"/>
      <point x="221" y="354" type="curve" smooth="yes"/>
    </contour>
    <contour>
      <point x="480" y="129" type="curve"/>
      <point x="496" y="116"/>
      <point x="506" y="96"/>
      <point x="506" y="74" type="curve" smooth="yes"/>
      <point x="506" y="33"/>
      <point x="471" y="0"/>
      <point x="429" y="0" type="curve" smooth="yes"/>
      <point x="387" y="0"/>
      <point x="353" y="33"/>
      <point x="353" y="74" type="curve"/>
      <point x="379" y="74" type="line" smooth="yes"/>
      <point x="387" y="74"/>
      <point x="394" y="70"/>
      <point x="397" y="62" type="curve" smooth="yes"/>
      <point x="402" y="51"/>
      <point x="415" y="42"/>
      <point x="429" y="42" type="curve" smooth="yes"/>
      <point x="448" y="42"/>
      <point x="463" y="57"/>
      <point x="463" y="74" type="curve" smooth="yes"/>
      <point x="463" y="89"/>
      <point x="453" y="101"/>
      <point x="439" y="105" type="curve" smooth="yes"/>
      <point x="433" y="106"/>
      <point x="429" y="111"/>
      <point x="429" y="116" type="curve" smooth="yes"/>
      <point x="429" y="139" type="line" smooth="yes"/>
      <point x="429" y="144"/>
      <point x="433" y="148"/>
      <point x="438" y="150" type="curve" smooth="yes"/>
      <point x="448" y="153"/>
      <point x="456" y="163"/>
      <point x="456" y="175" type="curve" smooth="yes"/>
      <point x="456" y="189"/>
      <point x="444" y="201"/>
      <point x="429" y="201" type="curve" smooth="yes"/>
      <point x="419" y="201"/>
      <point x="410" y="195"/>
      <point x="406" y="187" type="curve" smooth="yes"/>
      <point x="402" y="180"/>
      <point x="396" y="175"/>
      <point x="388" y="175" type="curve" smooth="yes"/>
      <point x="361" y="175" type="line"/>
      <point x="361" y="212.4"/>
      <point x="391.131" y="243.456"/>
      <point x="428.8" y="243.456" type="curve" smooth="yes"/>
      <point x="433.433" y="243.456"/>
      <point x="438.181" y="242.986"/>
      <point x="443" y="242" type="curve" smooth="yes"/>
      <point x="470" y="236"/>
      <point x="491" y="215"/>
      <point x="497" y="188" type="curve" smooth="yes"/>
      <point x="497.753" y="183.67"/>
      <point x="498.116" y="179.411"/>
      <point x="498.116" y="175.249" type="curve" smooth="yes"/>
      <point x="498.116" y="157.306"/>
      <point x="491.364" y="141.176"/>
    </contour>
    <contour>
      <point x="388" y="455" type="line" smooth="yes"/>
      <point x="395.079" y="469.867"/>
      <point x="410.178" y="478.719"/>
      <point x="425.844" y="478.719" type="curve" smooth="yes"/>
      <point x="432.307" y="478.719"/>
      <point x="438.867" y="477.213"/>
      <point x="445" y="474" type="curve"/>
      <point x="224" y="32" type="line" smooth="yes"/>
      <point x="216.184" y="17.0776"/>
      <point x="201.298" y="8.71944"/>
      <point x="185.802" y="8.71944" type="curve" smooth="yes"/>
      <point x="179.49" y="8.71944"/>
      <point x="173.078" y="10.1059"/>
      <point x="167" y="13" type="curve"/>
    </contour>
  </outline>
</glyph>
<glyph name="X.alt1" format="2">
  <advance width="823"/>
  <unicode hex="F01F"/>
  <outline>
    <contour>
      <point x="702" y="45" type="curve" smooth="yes"/>
      <point x="724" y="42"/>
      <point x="741" y="23"/>
      <point x="741" y="0" type="curve"/>
      <point x="602" y="0"/>
      <point x="483" y="76"/>
      <point x="427" y="184" type="curve"/>
      <point x="414" y="145"/>
      <point x="392" y="108"/>
      <point x="361" y="78" type="curve" smooth="yes"/>
      <point x="310" y="29"/>
      <point x="242" y="3"/>
      <point x="172" y="3" type="curve" smooth="yes"/>
      <point x="150" y="3"/>
      <point x="127" y="6"/>
      <point x="104" y="12" type="curve" smooth="yes"/>
      <point x="92" y="15" type="line"/>
      <point x="89" y="27" type="line" smooth="yes"/>
      <point x="82.8138" y="48.7756"/>
      <point x="79.8115" y="71.041"/>
      <point x="79.8115" y="93.1902" type="curve" smooth="yes"/>
      <point x="79.8115" y="160.551"/>
      <point x="107.579" y="226.837"/>
      <point x="158" y="275" type="curve" smooth="yes"/>
      <point x="208.405" y="323.725"/>
      <point x="277.16" y="349.866"/>
      <point x="347.07" y="349.866" type="curve" smooth="yes"/>
      <point x="360.378" y="349.866"/>
      <point x="373.727" y="348.919"/>
      <point x="387" y="347" type="curve"/>
      <point x="387" y="347"/>
      <point x="387" y="347"/>
      <point x="387" y="348" type="curve" smooth="yes"/>
      <point x="387" y="350"/>
      <point x="387" y="353"/>
      <point x="386" y="355" type="curve" smooth="yes"/>
      <point x="371" y="481"/>
      <point x="269" y="581"/>
      <point x="140" y="598" type="curve" smooth="yes"/>
      <point x="118" y="601"/>
      <point x="101" y="620"/>
      <point x="101" y="643" type="curve"/>
      <point x="231" y="643"/>
      <point x="344" y="570"/>
      <point x="398" y="463" type="curve"/>
      <point x="410" y="501"/>
      <point x="432" y="537"/>
      <point x="463" y="566" type="curve" smooth="yes"/>
      <point x="512.859" y="615.103"/>
      <point x="581.549" y="641.379"/>
      <point x="651.397" y="641.379" type="curve" smooth="yes"/>
      <point x="674.01" y="641.379"/>
      <point x="696.744" y="638.625"/>
      <point x="719" y="633" type="curve" smooth="yes"/>
      <point x="731" y="629" type="line"/>
      <point x="734" y="618" type="line" smooth="yes"/>
      <point x="740.186" y="595.977"/>
      <point x="743.188" y="573.587"/>
      <point x="743.188" y="551.374" type="curve" smooth="yes"/>
      <point x="743.188" y="483.821"/>
      <point x="715.421" y="417.916"/>
      <point x="665" y="369" type="curve" smooth="yes"/>
      <point x="615" y="321"/>
      <point x="547" y="294"/>
      <point x="477" y="294" type="curve" smooth="yes"/>
      <point x="464" y="294"/>
      <point x="450" y="295"/>
      <point x="437" y="297" type="curve"/>
      <point x="449" y="166"/>
      <point x="561" y="61"/>
    </contour>
    <contour>
      <point x="492" y="536" type="curve" smooth="yes"/>
      <point x="450.14" y="495.05"/>
      <point x="427.327" y="440.851"/>
      <point x="427.327" y="384.706" type="curve" smooth="yes"/>
      <point x="427.327" y="379.153"/>
      <point x="427.55" y="373.581"/>
      <point x="428" y="368" type="curve" smooth="yes"/>
      <point x="428" y="363"/>
      <point x="429" y="358"/>
      <point x="429" y="352" type="curve" smooth="yes"/>
      <point x="430" y="349"/>
      <point x="431" y="345"/>
      <point x="431" y="341" type="curve" smooth="yes"/>
      <point x="446.299" y="337.899"/>
      <point x="461.769" y="336.379"/>
      <point x="477.154" y="336.379" type="curve" smooth="yes"/>
      <point x="536.184" y="336.379"/>
      <point x="593.958" y="358.751"/>
      <point x="636" y="400" type="curve" smooth="yes"/>
      <point x="678.074" y="439.693"/>
      <point x="700.612" y="494.51"/>
      <point x="700.612" y="550.444" type="curve" smooth="yes"/>
      <point x="700.612" y="564.969"/>
      <point x="699.092" y="579.57"/>
      <point x="696" y="594" type="curve"/>
      <point x="680.863" y="597.11"/>
      <point x="665.512" y="598.63"/>
      <point x="650.213" y="598.63" type="curve" smooth="yes"/>
      <point x="591.728" y="598.63"/>
      <point x="534.01" y="576.425"/>
    </contour>
    <contour>
      <point x="331" y="108" type="curve" smooth="yes"/>
      <point x="373.313" y="148.716"/>
      <point x="396.504" y="204.091"/>
      <point x="396.504" y="260.387" type="curve" smooth="yes"/>
      <point x="396.504" y="274.607"/>
      <point x="395.025" y="288.885"/>
      <point x="392" y="303" type="curve"/>
      <point x="376.656" y="306.11"/>
      <point x="361.183" y="307.63"/>
      <point x="345.813" y="307.63" type="curve" smooth="yes"/>
      <point x="287.057" y="307.63"/>
      <point x="229.803" y="285.425"/>
      <point x="187" y="245" type="curve" smooth="yes"/>
      <point x="144.926" y="204.514"/>
      <point x="122.388" y="149.533"/>
      <point x="122.388" y="93.5646" type="curve" smooth="yes"/>
      <point x="122.388" y="79.0308"/>
      <point x="123.908" y="64.4304"/>
      <point x="127" y="50" type="curve"/>
      <point x="142.344" y="46.8897"/>
      <point x="157.817" y="45.3703"/>
      <point x="173.178" y="45.3703" type="curve" smooth="yes"/>
      <point x="231.9" y="45.3703"/>
      <point x="288.99" y="67.5749"/>
    </contour>
  </outline>
</glyph>
<glyph name="W.alt1" format="2">
  <advance width="834"/>
  <unicode hex="F020"/>
  <outline>
    <contour>
      <point x="712" y="640" type="line"/>
      <point x="735" y="640"/>
      <point x="754" y="621"/>
      <point x="754" y="598" type="curve" smooth="yes"/>
      <point x="754" y="226" type="line" smooth="yes"/>
      <point x="754" y="105"/>
      <point x="660" y="3"/>
      <point x="540" y="0" type="curve" smooth="yes"/>
      <point x="496" y="-0"/>
      <point x="454" y="12"/>
      <point x="417" y="35" type="curve"/>
      <point x="383" y="13"/>
      <point x="344" y="1"/>
      <point x="303" y="0" type="curve" smooth="yes"/>
      <point x="301" y="0"/>
      <point x="300" y="-0"/>
      <point x="299" y="-0" type="curve" smooth="yes"/>
      <point x="178" y="-0"/>
      <point x="80" y="98"/>
      <point x="80" y="219" type="curve" smooth="yes"/>
      <point x="80" y="640" type="line"/>
      <point x="103" y="640"/>
      <point x="122" y="621"/>
      <point x="122" y="597" type="curve" smooth="yes"/>
      <point x="122" y="219" type="line" smooth="yes"/>
      <point x="122" y="123"/>
      <point x="199" y="44"/>
      <point x="295" y="42" type="curve" smooth="yes"/>
      <point x="296" y="43"/>
      <point x="297" y="43"/>
      <point x="298" y="43" type="curve" smooth="yes"/>
      <point x="328" y="43"/>
      <point x="356" y="50"/>
      <point x="382" y="64" type="curve"/>
      <point x="340" y="105"/>
      <point x="317" y="160"/>
      <point x="317" y="219" type="curve" smooth="yes"/>
      <point x="317" y="288"/>
      <point x="349" y="352"/>
      <point x="404" y="394" type="curve" smooth="yes"/>
      <point x="412" y="399"/>
      <point x="422" y="399"/>
      <point x="430" y="394" type="curve" smooth="yes"/>
      <point x="485" y="352"/>
      <point x="517" y="288"/>
      <point x="517" y="219" type="curve" smooth="yes"/>
      <point x="517" y="160"/>
      <point x="494" y="105"/>
      <point x="452" y="64" type="curve"/>
      <point x="477.312" y="49.9375"/>
      <point x="506.141" y="42.9062"/>
      <point x="535.188" y="42.9062" type="curve" smooth="yes"/>
      <point x="537.125" y="42.9062"/>
      <point x="539.062" y="42.9375"/>
      <point x="541" y="43" type="curve" smooth="yes"/>
      <point x="638" y="46"/>
      <point x="712" y="129"/>
      <point x="712" y="225" type="curve" smooth="yes"/>
    </contour>
    <contour>
      <point x="359" y="219" type="curve" smooth="yes"/>
      <point x="359" y="169"/>
      <point x="380" y="122"/>
      <point x="417" y="89" type="curve"/>
      <point x="454" y="122"/>
      <point x="475" y="169"/>
      <point x="475" y="219" type="curve" smooth="yes"/>
      <point x="475" y="269"/>
      <point x="454" y="316"/>
      <point x="417" y="349" type="curve"/>
      <point x="380" y="316"/>
      <point x="359" y="269"/>
    </contour>
  </outline>
</glyph>
<glyph name="V.alt1" format="2">
  <advance width="660"/>
  <unicode hex="F021"/>
  <outline>
    <contour>
      <point x="525" y="603" type="line" smooth="yes"/>
      <point x="531.861" y="619.77"/>
      <point x="547.437" y="630.149"/>
      <point x="564.2" y="630.149" type="curve" smooth="yes"/>
      <point x="569.428" y="630.149"/>
      <point x="574.77" y="629.139"/>
      <point x="580" y="627" type="curve"/>
      <point x="509" y="437" type="line" smooth="yes"/>
      <point x="501.987" y="419.857"/>
      <point x="485.867" y="409.394"/>
      <point x="468.682" y="409.394" type="curve" smooth="yes"/>
      <point x="463.812" y="409.394"/>
      <point x="458.857" y="410.234"/>
      <point x="454" y="412" type="curve"/>
    </contour>
    <contour>
      <point x="352" y="140" type="line" smooth="yes"/>
      <point x="358.234" y="157.143"/>
      <point x="374.789" y="167.606"/>
      <point x="391.731" y="167.606" type="curve" smooth="yes"/>
      <point x="396.532" y="167.606"/>
      <point x="401.363" y="166.766"/>
      <point x="406" y="165" type="curve"/>
      <point x="350" y="14" type="line" smooth="yes"/>
      <point x="347" y="5"/>
      <point x="339" y="0"/>
      <point x="330" y="0" type="curve" smooth="yes"/>
      <point x="321" y="0"/>
      <point x="313" y="5"/>
      <point x="310" y="14" type="curve" smooth="yes"/>
      <point x="80" y="627" type="line"/>
      <point x="85.2297" y="629.139"/>
      <point x="90.5724" y="630.149"/>
      <point x="95.7864" y="630.149" type="curve" smooth="yes"/>
      <point x="112.506" y="630.149"/>
      <point x="127.902" y="619.77"/>
      <point x="134" y="603" type="curve" smooth="yes"/>
      <point x="330" y="81" type="line"/>
    </contour>
  </outline>
</glyph>
<glyph name="U.alt1" format="2">
  <advance width="679"/>
  <unicode hex="F022"/>
  <outline>
    <contour>
      <point x="229" y="58" type="curve" smooth="yes"/>
      <point x="244.081" y="48.9517"/>
      <point x="252.907" y="33.6491"/>
      <point x="252.907" y="17.237" type="curve" smooth="yes"/>
      <point x="252.907" y="11.8832"/>
      <point x="251.968" y="6.41136"/>
      <point x="250" y="1" type="curve"/>
      <point x="148" y="39"/>
      <point x="80" y="137"/>
      <point x="80" y="245" type="curve" smooth="yes"/>
      <point x="80" y="640" type="line"/>
      <point x="103" y="640"/>
      <point x="122" y="621"/>
      <point x="122" y="598" type="curve" smooth="yes"/>
      <point x="122" y="245" type="line" smooth="yes"/>
      <point x="122" y="168"/>
      <point x="164" y="97"/>
    </contour>
    <contour>
      <point x="556" y="598" type="line" smooth="yes"/>
      <point x="556" y="621"/>
      <point x="575" y="640"/>
      <point x="599" y="640" type="curve"/>
      <point x="599" y="245" type="line" smooth="yes"/>
      <point x="599" y="135"/>
      <point x="529" y="36"/>
      <point x="425" y="-0" type="curve"/>
      <point x="423.125" y="5.15758"/>
      <point x="422.238" y="10.3701"/>
      <point x="422.238" y="15.4701" type="curve" smooth="yes"/>
      <point x="422.238" y="32.1245"/>
      <point x="431.689" y="47.5788"/>
      <point x="447" y="56" type="curve" smooth="yes"/>
      <point x="514" y="94"/>
      <point x="556" y="166"/>
      <point x="556" y="245" type="curve" smooth="yes"/>
    </contour>
  </outline>
</glyph>
<glyph name="S.alt1" format="2">
  <advance width="658"/>
  <unicode hex="F024"/>
  <outline>
    <contour>
      <point x="329.275" y="203.885" type="curve"/>
      <point x="192.369" y="203.885"/>
      <point x="80.9756" y="301.709"/>
      <point x="80.9756" y="421.951" type="curve" smooth="yes"/>
      <point x="80.9756" y="542.193"/>
      <point x="192.357" y="640.016"/>
      <point x="329.277" y="640.016" type="curve" smooth="yes"/>
      <point x="466.197" y="640.016"/>
      <point x="577.593" y="542.193"/>
      <point x="577.593" y="421.951" type="curve"/>
      <point x="574.206" y="421.951" type="line" smooth="yes"/>
      <point x="553.239" y="421.951"/>
      <point x="535.969" y="436.936"/>
      <point x="531.072" y="457.324" type="curve" smooth="yes"/>
      <point x="511.826" y="537.326"/>
      <point x="428.649" y="597.688"/>
      <point x="329.275" y="597.688" type="curve" smooth="yes"/>
      <point x="215.707" y="597.688"/>
      <point x="123.303" y="518.856"/>
      <point x="123.303" y="421.951" type="curve" smooth="yes"/>
      <point x="123.303" y="336.573"/>
      <point x="195.051" y="265.221"/>
      <point x="289.797" y="249.46" type="curve" smooth="yes"/>
      <point x="312.372" y="245.692"/>
      <point x="329.275" y="226.785"/>
    </contour>
    <contour>
      <point x="328.318" y="436.132" type="curve"/>
      <point x="465.238" y="436.132"/>
      <point x="576.619" y="338.307"/>
      <point x="576.619" y="218.063" type="curve" smooth="yes"/>
      <point x="576.619" y="97.8213"/>
      <point x="465.209" y="-0.000976562"/>
      <point x="328.303" y="-0.000976562" type="curve" smooth="yes"/>
      <point x="191.396" y="-0.000976562"/>
      <point x="80.001" y="97.8359"/>
      <point x="80.001" y="218.064" type="curve"/>
      <point x="83.3877" y="218.064" type="line" smooth="yes"/>
      <point x="104.354" y="218.064"/>
      <point x="121.625" y="203.08"/>
      <point x="126.521" y="182.691" type="curve" smooth="yes"/>
      <point x="145.753" y="102.676"/>
      <point x="228.93" y="42.3291"/>
      <point x="328.304" y="42.3291" type="curve" smooth="yes"/>
      <point x="441.887" y="42.3291"/>
      <point x="534.291" y="121.16"/>
      <point x="534.291" y="218.065" type="curve" smooth="yes"/>
      <point x="534.291" y="303.443"/>
      <point x="462.558" y="374.796"/>
      <point x="367.797" y="390.557" type="curve" smooth="yes"/>
      <point x="345.222" y="394.324"/>
      <point x="328.318" y="413.231"/>
    </contour>
  </outline>
</glyph>
<glyph name="fish.liga" format="2">
  <advance width="562"/>
  <unicode hex="F025"/>
  <outline>
    <contour>
      <point x="477.77" y="332.72" type="curve" smooth="yes"/>
      <point x="483.479" y="325.14"/>
      <point x="483.479" y="314.849"/>
      <point x="477.77" y="307.259" type="curve" smooth="yes"/>
      <point x="435.479" y="251.079"/>
      <point x="371.1" y="218.839"/>
      <point x="301.14" y="218.839" type="curve" smooth="yes"/>
      <point x="241.149" y="218.839"/>
      <point x="185.229" y="242.549"/>
      <point x="143.859" y="284.769" type="curve"/>
      <point x="135.779" y="269.929"/>
      <point x="129.89" y="254.119"/>
      <point x="126.35" y="237.739" type="curve" smooth="yes"/>
      <point x="121.649" y="216.06"/>
      <point x="103.419" y="200"/>
      <point x="81.2285" y="200" type="curve" smooth="yes"/>
      <point x="79.998" y="200" type="line"/>
      <point x="79.998" y="242.95"/>
      <point x="92.2578" y="284.12"/>
      <point x="115.607" y="319.99" type="curve"/>
      <point x="92.2578" y="355.87"/>
      <point x="79.998" y="397.04"/>
      <point x="79.998" y="439.98" type="curve"/>
      <point x="81.2285" y="439.98" type="line" smooth="yes"/>
      <point x="103.419" y="439.98"/>
      <point x="121.649" y="423.921"/>
      <point x="126.35" y="402.23" type="curve" smooth="yes"/>
      <point x="129.909" y="385.851"/>
      <point x="135.779" y="370.051"/>
      <point x="143.859" y="355.211" type="curve"/>
      <point x="185.229" y="397.421"/>
      <point x="241.13" y="421.141"/>
      <point x="301.14" y="421.141" type="curve" smooth="yes"/>
      <point x="371.1" y="421.141"/>
      <point x="435.479" y="388.91"/>
    </contour>
    <contour>
      <point x="301.14" y="261.148" type="curve" smooth="yes"/>
      <point x="352.18" y="261.148"/>
      <point x="399.54" y="282.389"/>
      <point x="433.45" y="319.969" type="curve"/>
      <point x="399.54" y="357.549"/>
      <point x="352.18" y="378.799"/>
      <point x="301.14" y="378.799" type="curve" smooth="yes"/>
      <point x="250.109" y="378.799"/>
      <point x="202.739" y="357.549"/>
      <point x="168.829" y="319.969" type="curve"/>
      <point x="202.739" y="282.398"/>
      <point x="250.109" y="261.148"/>
    </contour>
  </outline>
</glyph>
<glyph name=".notdef" format="2">
  <advance width="527"/>
  <outline>
    <contour>
      <point x="50" y="700" type="line"/>
      <point x="477" y="700" type="line"/>
      <point x="477" y="0" type="line"/>
      <point x="50" y="0" type="line"/>
    </contour>
    <contour>
      <point x="78" y="680" type="line"/>
      <point x="263" y="371" type="line"/>
      <point x="449" y="680" type="line"/>
    </contour>
    <contour>
      <point x="251" y="350" type="line"/>
      <point x="71" y="650" type="line"/>
      <point x="71" y="49" type="line"/>
    </contour>
    <contour>
      <point x="264" y="329" type="line"/>
      <point x="79" y="21" type="line"/>
      <point x="449" y="21" type="line"/>
    </contour>
    <contour>
      <point x="276" y="350" type="line"/>
      <point x="457" y="47" type="line"/>
      <point x="457" y="652" type="line"/>
    </contour>
  </outline>
</glyph>
